<?xml version="1.0" encoding="utf-8"?>
<!-- Generator: Adobe Illustrator 22.0.0, SVG Export Plug-In . SVG Version: 6.00 Build 0)  -->
<svg version="1.1" id="Layer_1" xmlns="http://www.w3.org/2000/svg" xmlns:xlink="http://www.w3.org/1999/xlink" x="0px" y="0px"
	 viewBox="0 0 1920 1080" style="enable-background:new 0 0 1920 1080;" xml:space="preserve">
<style type="text/css">
	@keyframes fadeIn{
		0%{opacity:0}
		100%{opacity:0.5}
	}
	.st0{fill:none;}
	.st1{
		fill:#00565B;animation: fadeIn 1s;
		animation-fill-mode: forwards;
	}
	.st2{fill:url(#iot);}
</style>
<pattern  width="500" height="350" patternUnits="userSpaceOnUse" id="iot" viewBox="21.4 -399 500 350" style="overflow:visible;">
	<g>
		<rect x="21.4" y="-399" class="st0" width="500" height="350"/>
		<g>
			<g>
				<path class="st1" d="M531.3-49.5c-8.3,0-15.1,6.8-15.1,15.1s6.8,15.1,15.1,15.1c8.3,0,15.1-6.8,15.1-15.1S539.6-49.5,531.3-49.5
					z M531.3-22.7c-6.5,0-11.7-5.2-11.7-11.7s5.2-11.7,11.7-11.7S543-40.8,543-34.4S537.8-22.7,531.3-22.7z"/>
				<path class="st1" d="M561.9-37.3H560v-20.9c0-0.9-0.8-1.7-1.7-1.7s-1.7,0.8-1.7,1.7v20.9h-2.1V-49c0-3.6-3-6.6-6.6-6.6h-33.3
					c-3.6,0-6.6,3-6.6,6.6v42.3c0,3.6,3,6.6,6.6,6.6h33.3c3.6,0,6.6-3,6.6-6.6v-12.9h1.5c4.2,0,7.6-3.4,7.6-7.6v-8.5
					C563.6-36.6,562.8-37.3,561.9-37.3z M547.9-3.4h-33.3c-1.8,0-3.2-1.4-3.2-3.2V-49c0-1.8,1.4-3.2,3.2-3.2h33.3
					c1.8,0,3.2,1.4,3.2,3.2v42.3h0C551.2-4.8,549.7-3.4,547.9-3.4z M560.2-27.1c0,2.3-1.9,4.2-4.2,4.2h-1.5v-11h5.7V-27.1z"/>
			</g>
		</g>
		<g>
			<g>
				<path class="st1" d="M308.3-47.5c-2.3-2.3-5.3-3.5-8.5-3.5s-6.2,1.3-8.5,3.5c-0.7,0.7-0.7,1.7,0,2.4c0.7,0.7,1.7,0.7,2.4,0
					c1.6-1.6,3.8-2.5,6.1-2.5s4.5,0.9,6.1,2.5c0.3,0.3,0.8,0.5,1.2,0.5s0.9-0.2,1.2-0.5C309-45.8,309-46.8,308.3-47.5z"/>
			</g>
			<g>
				<path class="st1" d="M31.3-49.5c-8.3,0-15.1,6.8-15.1,15.1S23-19.3,31.3-19.3s15.1-6.8,15.1-15.1S39.6-49.5,31.3-49.5z
					 M31.3-22.7c-6.5,0-11.7-5.2-11.7-11.7s5.2-11.7,11.7-11.7S43-40.8,43-34.4S37.8-22.7,31.3-22.7z"/>
				<path class="st1" d="M61.9-37.3H60v-20.9c0-0.9-0.8-1.7-1.7-1.7c-0.9,0-1.7,0.8-1.7,1.7v20.9h-2.1V-49c0-3.6-3-6.6-6.6-6.6H14.7
					c-3.6,0-6.6,3-6.6,6.6v42.3C8.1-3,11,0,14.7,0h33.3c3.6,0,6.6-3,6.6-6.6v-12.9H56c4.2,0,7.6-3.4,7.6-7.6v-8.5
					C63.6-36.6,62.8-37.3,61.9-37.3z M47.9-3.4H14.7c-1.8,0-3.2-1.4-3.2-3.2V-49c0-1.8,1.4-3.2,3.2-3.2h33.3c1.8,0,3.2,1.4,3.2,3.2
					v42.3h0C51.2-4.8,49.7-3.4,47.9-3.4z M60.2-27.1c0,2.3-1.9,4.2-4.2,4.2h-1.5v-11h5.7V-27.1z"/>
			</g>
			<g>
				<path class="st1" d="M143.9-54.3h-3.8l-1.2-4.6c-0.2-0.7-0.8-1.2-1.6-1.2h-37.1c-0.8,0-1.4,0.5-1.6,1.2l-1.2,4.6h-3.8
					c-2.7,0-4.8,2.2-4.8,4.8v27.1c0,3,2.4,5.5,5.5,5.5h49c3,0,5.5-2.4,5.5-5.5v-27.1C148.8-52.1,146.6-54.3,143.9-54.3z M101.6-56.8
					h34.5l0.6,2.3H101L101.6-56.8z M145.5-22.4c0,1.2-1,2.1-2.1,2.1h-49c-1.2,0-2.1-1-2.1-2.1v-23.1h53.3V-22.4z M145.5-48.8H92.2
					v-0.7c0-0.8,0.7-1.5,1.5-1.5h50.2c0.8,0,1.5,0.7,1.5,1.5V-48.8z"/>
				<path class="st1" d="M122.2-64.9c-1.8-1.8-4.8-1.8-6.7,0c-0.6,0.6-0.6,1.7,0,2.3c0.6,0.6,1.7,0.6,2.3,0c0.6-0.6,1.4-0.6,2,0
					c0.3,0.3,0.7,0.5,1.2,0.5c0.4,0,0.8-0.2,1.2-0.5C122.8-63.2,122.8-64.3,122.2-64.9z"/>
				<path class="st1" d="M124.6-68.8c-3.2-3.2-8.3-3.2-11.5,0c-0.6,0.6-0.6,1.7,0,2.3c0.6,0.6,1.7,0.6,2.3,0c1.9-1.9,4.9-1.9,6.8,0
					c0.3,0.3,0.7,0.5,1.2,0.5c0.4,0,0.8-0.2,1.2-0.5C125.2-67.1,125.2-68.1,124.6-68.8z"/>
				<path class="st1" d="M127.3-72.4c-4.7-4.7-12.2-4.7-16.9,0c-0.6,0.6-0.6,1.7,0,2.3c0.6,0.6,1.7,0.6,2.3,0
					c3.4-3.4,8.8-3.4,12.2,0c0.3,0.3,0.7,0.5,1.2,0.5s0.8-0.2,1.2-0.5C127.9-70.7,127.9-71.7,127.3-72.4z"/>
			</g>
		</g>
		<g>
			<g>
				<path class="st1" d="M537.2-102.6c-2.6-2-5.9-2.9-9.2-2.4c-3.3,0.4-6.2,2.1-8.2,4.8c-0.5,0.7-0.4,1.7,0.3,2.3
					c0.7,0.5,1.7,0.4,2.3-0.3c1.5-1.9,3.6-3.2,6.1-3.5s4.8,0.3,6.8,1.8c0.4,0.3,0.8,0.4,1.2,0.3c0.4-0.1,0.8-0.3,1.1-0.6
					C538-101.1,537.9-102.1,537.2-102.6z"/>
				<path class="st1" d="M572-79.2l-0.9-6.3c-0.5-4-4.3-6.9-8.3-6.3l-6.5,0.9l-0.1-0.5c-0.1-0.4-0.3-0.8-0.6-1.1
					c-0.3-0.3-0.8-0.4-1.2-0.3c0,0,0,0,0,0l-5.2,0.7l-0.5-3.5l2.5-0.3c0.9-0.1,1.5-0.9,1.4-1.8s-0.9-1.5-1.8-1.4l-8.3,1.1
					c-0.9,0.1-1.5,0.9-1.4,1.8c0.1,0.9,0.9,1.5,1.8,1.4l2.5-0.3l0.5,3.5l-5.2,0.7c-0.9,0.1-1.5,0.9-1.4,1.8l0.1,0.4l-5.6,0.8
					c-0.2-0.8-1-1.3-1.8-1.2l-3.9,0.5c-0.8,0.1-1.4,0.8-1.4,1.6L513.8-85c-0.9,0.1-1.5,0.9-1.4,1.8c0.1,0.9,0.9,1.5,1.8,1.4
					l25.8-3.5l0.3,2.5l-25.8,3.5c-0.9,0.1-1.5,0.9-1.4,1.8c0.1,0.9,0.9,1.5,1.8,1.4l25.8-3.5l0.1,0.5c0.1,0.4,0.3,0.8,0.6,1.1
					c0.3,0.3,0.8,0.4,1.2,0.3c0,0,0,0,0,0l13.6-1.9c0.9-0.1,1.5-0.9,1.4-1.8l-0.1-0.5l4.9-0.7l0.6,4.6c-0.8,0.2-1.3,1-1.2,1.8
					c0.1,0.9,0.9,1.5,1.8,1.4l8.5-1.2c0.9-0.1,1.5-0.9,1.4-1.8C573.5-78.6,572.8-79.2,572-79.2z M554.2-82.6l-10.4,1.4l-0.9-6.7
					l10.4-1.4L554.2-82.6z M568.7-79.3l-2.5,0.3l-0.6-4.3c-0.2-1.7-1.8-2.9-3.5-2.6l-5,0.7l-0.3-2.5l6.5-0.9
					c2.2-0.3,4.3,1.3,4.6,3.5L568.7-79.3z"/>
			</g>
			<g>
				<path class="st1" d="M531.3-399.5c-8.3,0-15.1,6.8-15.1,15.1s6.8,15.1,15.1,15.1c8.3,0,15.1-6.8,15.1-15.1
					S539.6-399.5,531.3-399.5z M531.3-372.7c-6.5,0-11.7-5.2-11.7-11.7s5.2-11.7,11.7-11.7s11.7,5.2,11.7,11.7
					S537.8-372.7,531.3-372.7z"/>
				<path class="st1" d="M561.9-387.3H560v-20.9c0-0.9-0.8-1.7-1.7-1.7s-1.7,0.8-1.7,1.7v20.9h-2.1V-399c0-3.6-3-6.6-6.6-6.6h-33.3
					c-3.6,0-6.6,3-6.6,6.6v42.3c0,3.6,3,6.6,6.6,6.6h33.3c3.6,0,6.6-3,6.6-6.6v-12.9h1.5c4.2,0,7.6-3.4,7.6-7.6v-8.5
					C563.6-386.6,562.8-387.3,561.9-387.3z M547.9-353.4h-33.3c-1.8,0-3.2-1.4-3.2-3.2V-399c0-1.8,1.4-3.2,3.2-3.2h33.3
					c1.8,0,3.2,1.4,3.2,3.2v42.3h0C551.2-354.8,549.7-353.4,547.9-353.4z M560.2-377.1c0,2.3-1.9,4.2-4.2,4.2h-1.5v-11h5.7V-377.1z"
					/>
			</g>
			<g>
				<path class="st1" d="M555.1-166.8h-50.4c-2.6,0-4.7,2.1-4.7,4.7v33.2c0,2.6,2.1,4.7,4.7,4.7h19v3.1c-2.8,0.5-5.5,1.4-8.2,2.6
					c-0.8,0.4-1.2,1.4-0.8,2.2c0.4,0.8,1.4,1.2,2.2,0.8c8.3-3.8,17.8-3.8,26.1,0c0.2,0.1,0.5,0.2,0.7,0.2c0.6,0,1.2-0.4,1.5-1
					c0.4-0.8,0-1.8-0.8-2.2c-2.6-1.2-5.4-2.1-8.2-2.6v-3.1h19c2.6,0,4.7-2.1,4.7-4.7v-33.2C559.9-164.7,557.8-166.8,555.1-166.8z
					 M532.9-121.5c-2-0.2-3.9-0.2-5.9,0v-2.7h5.9V-121.5z M556.6-128.9c0,0.8-0.6,1.4-1.4,1.4h-50.4c-0.8,0-1.4-0.6-1.4-1.4v-33.2
					c0-0.8,0.6-1.4,1.4-1.4h50.4c0.8,0,1.4,0.6,1.4,1.4V-128.9L556.6-128.9z"/>
				<path class="st1" d="M552.8-161.4h-45.7c-0.9,0-1.7,0.7-1.7,1.7v28.5c0,0.9,0.7,1.7,1.7,1.7h45.7c0.9,0,1.7-0.7,1.7-1.7v-28.5
					C554.4-160.7,553.7-161.4,552.8-161.4z M551.1-132.9h-42.4v-25.2h42.4V-132.9z"/>
				<path class="st1" d="M536.5-154h-18.9c-0.9,0-1.7,0.7-1.7,1.7v10.1c0,0.9,0.7,1.7,1.7,1.7h18.9c0.9,0,1.7-0.7,1.7-1.7v-10.1
					C538.1-153.3,537.4-154,536.5-154z M534.8-143.9h-15.6v-6.7h15.6V-143.9z"/>
				<path class="st1" d="M546-139.3h-28.4c-0.9,0-1.7,0.7-1.7,1.7c0,0.9,0.7,1.7,1.7,1.7H546c0.9,0,1.7-0.7,1.7-1.7
					S546.9-139.3,546-139.3z"/>
			</g>
		</g>
		<g>
			<g>
				<path class="st1" d="M197-364.7h-41.8c-2.1,0-3.9,1.7-3.9,3.9v47.1c0,2.1,1.7,3.9,3.9,3.9H197c2.1,0,3.9-1.7,3.9-3.9v-47.1
					C200.9-362.9,199.1-364.7,197-364.7z M197.8-313.7c0,0.5-0.4,0.8-0.8,0.8h-41.8c-0.5,0-0.8-0.4-0.8-0.8V-350h43.4V-313.7z
					 M197.8-353.1h-43.4v-7.7c0-0.5,0.4-0.8,0.8-0.8H197c0.5,0,0.8,0.4,0.8,0.8V-353.1z"/>
				<path class="st1" d="M166.5-359h-7.4c-0.8,0-1.5,0.7-1.5,1.5c0,0.8,0.7,1.5,1.5,1.5h7.4c0.8,0,1.5-0.7,1.5-1.5
					C168-358.3,167.3-359,166.5-359z"/>
				<path class="st1" d="M191.4-335.2c-1.6-7-7.9-12.2-15.3-12.2c-8.7,0-15.8,7.1-15.8,15.8c0,8.7,7.1,15.8,15.8,15.8
					c7.5,0,13.7-5.2,15.3-12.2c1-0.5,1.6-1.6,1.6-2.7v-1.7C193-333.7,192.4-334.7,191.4-335.2z M176.1-318.9
					c-7,0-12.7-5.7-12.7-12.7c0-7,5.7-12.7,12.7-12.7c5.6,0,10.4,3.7,12.1,8.8h-5.1c-1.4-2.5-4-4.1-7-4.1c-4.4,0-8,3.6-8,8
					c0,4.4,3.6,8,8,8c3,0,5.6-1.7,7-4.1h5.1C186.5-322.6,181.7-318.9,176.1-318.9z M179.9-328.4c-0.9,1.1-2.3,1.8-3.8,1.8
					c-2.8,0-5-2.2-5-5s2.2-5,5-5c1.5,0,2.9,0.7,3.8,1.8c-0.1,0.2-0.2,0.5-0.2,0.8v4.8C179.6-328.9,179.7-328.7,179.9-328.4z
					 M190-330.8C190-330.8,190-330.8,190-330.8l-7.3,0.1v-1.8h7.2c0,0,0.1,0,0.1,0.1V-330.8z"/>
				<circle class="st1" cx="191.9" cy="-345.3" r="2.2"/>
				<path class="st1" d="M194.6-360.9h-9.9c-0.8,0-1.5,0.7-1.5,1.5v3.9c0,0.8,0.7,1.5,1.5,1.5h9.9c0.8,0,1.5-0.7,1.5-1.5v-3.9
					C196.1-360.2,195.4-360.9,194.6-360.9z M193.1-357.1h-6.8v-0.8h6.8V-357.1z"/>
				<path class="st1" d="M180.2-360c-0.8,0-1.5,0.7-1.5,1.5v2c0,0.8,0.7,1.5,1.5,1.5s1.5-0.7,1.5-1.5v-2
					C181.7-359.3,181-360,180.2-360z"/>
			</g>
			<g>
				<path class="st1" d="M129.7-332.2v-4.5c0-3.7-3-6.7-6.7-6.7h-10c-3.7,0-6.7,3-6.7,6.7v4.5c-0.4,0.3-0.7,0.8-0.7,1.4v1.8
					c0,0.6,0.3,1.1,0.7,1.4v0.5c-0.4,0.3-0.7,0.8-0.7,1.4v1.8c0,0.6,0.3,1.1,0.7,1.4v14.8c0,3.7,3,6.7,6.7,6.7h10
					c3.7,0,6.7-3,6.7-6.7v-18c0.4-0.3,0.7-0.8,0.7-1.4v-3.7C130.4-331.4,130.1-331.8,129.7-332.2z M113-340h10
					c1.4,0,2.7,0.9,3.1,2.2h-16.3C110.3-339.1,111.5-340,113-340z M126.3-307.7c0,1.8-1.5,3.3-3.3,3.3h-10c-1.8,0-3.3-1.5-3.3-3.3
					v-1.4h16.7V-307.7z M126.3-312.4h-16.7v-22h16.7V-312.4z"/>
				<path class="st1" d="M85.2-322.7c-0.9,0-1.7,0.8-1.7,1.7v0.7c0,0.9,0.8,1.7,1.7,1.7s1.7-0.8,1.7-1.7v-0.7
					C86.9-321.9,86.1-322.7,85.2-322.7z"/>
				<path class="st1" d="M85.2-316.7c-0.9,0-1.7,0.8-1.7,1.7v1.5c0,0.9,0.8,1.7,1.7,1.7s1.7-0.8,1.7-1.7v-1.5
					C86.9-315.9,86.1-316.7,85.2-316.7z"/>
				<path class="st1" d="M86.7-308.9c-0.3-0.5-0.8-0.9-1.5-0.9c-0.9,0-1.7,0.8-1.7,1.7v0.7c0,0.9,0.8,1.7,1.7,1.7h0.7
					c0.9,0,1.7-0.8,1.7-1.7C87.6-308.1,87.3-308.6,86.7-308.9z"/>
				<path class="st1" d="M98.2-309.1h-1.4c-0.9,0-1.7,0.8-1.7,1.7s0.8,1.7,1.7,1.7h1.4c0.9,0,1.7-0.8,1.7-1.7S99.1-309.1,98.2-309.1
					z"/>
				<path class="st1" d="M92.1-309.1h-1.4c-0.9,0-1.7,0.8-1.7,1.7s0.8,1.7,1.7,1.7h1.4c0.9,0,1.7-0.8,1.7-1.7S93-309.1,92.1-309.1z"
					/>
				<path class="st1" d="M103.7-309.1H103c-0.9,0-1.7,0.8-1.7,1.7s0.8,1.7,1.7,1.7h0.7c0.9,0,1.7-0.8,1.7-1.7
					S104.6-309.1,103.7-309.1z"/>
				<path class="st1" d="M119.3-308.4h-2.5c-0.9,0-1.7,0.8-1.7,1.7c0,0.9,0.8,1.7,1.7,1.7h2.5c0.9,0,1.7-0.8,1.7-1.7
					C120.9-307.7,120.2-308.4,119.3-308.4z"/>
				<path class="st1" d="M99.2-350.6l-13.2-7c-0.5-0.3-1.1-0.3-1.6,0l-13.2,7c-0.5,0.3-0.9,0.9-0.9,1.5v3c0,0.9,0.8,1.7,1.7,1.7h1.1
					v16.4c0,0.9,0.8,1.7,1.7,1.7h8.5h3.8h8.5c0.9,0,1.7-0.8,1.7-1.7v-16.4h1.1c0.9,0,1.7-0.8,1.7-1.7v-3
					C100.1-349.8,99.7-350.3,99.2-350.6z M85.4-329.8H85v-3.8h0.4V-329.8z M93.9-329.8h-5.1v-5.5c0-0.9-0.8-1.7-1.7-1.7h-3.8
					c-0.9,0-1.7,0.8-1.7,1.7v5.5h-5.1v-14.7h17.4V-329.8z M96.7-347.8H73.7v-0.3l11.5-6.1l11.5,6.1V-347.8z"/>
			</g>
			<g>
				<path class="st1" d="M293.7-187.3v-23.1c0-1-0.8-1.9-1.9-1.9h-7.3c-1,0-1.9,0.8-1.9,1.9v22.9c-2.3,1.7-3.8,4.4-3.8,7.4
					c0,5,4.1,9.1,9.1,9.1c5,0,9.1-4.1,9.1-9.1C297.1-183,295.8-185.6,293.7-187.3z M288-174.8c-2.9,0-5.3-2.4-5.3-5.3
					c0-2,1.1-3.8,2.8-4.7c0.6-0.3,1-1,1-1.6v-4.5h0.5c1,0,1.9-0.8,1.9-1.9c0-1-0.8-1.9-1.9-1.9h-0.5v-0.4h0.5c1,0,1.9-0.8,1.9-1.9
					c0-1-0.8-1.9-1.9-1.9h-0.5v-0.4h0.5c1,0,1.9-0.8,1.9-1.9c0-1-0.8-1.9-1.9-1.9h-0.5v-0.4h0.5c1,0,1.9-0.8,1.9-1.9
					c0-1-0.8-1.9-1.9-1.9h-0.5v-1.4h3.5v22.2c0,0.6,0.3,1.2,0.9,1.6c1.6,1,2.5,2.7,2.5,4.5C293.3-177.2,290.9-174.8,288-174.8z"/>
				<path class="st1" d="M338.1-179.3v-5c0-4.1-3.4-7.5-7.5-7.5h-11.1c-4.1,0-7.5,3.4-7.5,7.5v5c-0.5,0.3-0.8,0.9-0.8,1.5v2.1
					c0,0.6,0.3,1.2,0.8,1.5v0.6c-0.5,0.3-0.8,0.9-0.8,1.5v2.1c0,0.6,0.3,1.2,0.8,1.5v16.5c0,4.1,3.4,7.5,7.5,7.5h11.1
					c4.1,0,7.5-3.4,7.5-7.5v-20.1c0.5-0.3,0.8-0.9,0.8-1.5v-4.1C338.9-178.4,338.6-179,338.1-179.3z M319.5-188.1h11.1
					c1.6,0,3,1,3.5,2.5H316C316.5-187,317.9-188.1,319.5-188.1z M315.8-181.8h18.6v24.5h-18.6V-181.8z M334.4-152
					c0,2.1-1.7,3.7-3.7,3.7h-11.1c-2.1,0-3.7-1.7-3.7-3.7v-1.5h18.6V-152z"/>
				<path class="st1" d="M288.5-168.7c-1,0-1.9,0.8-1.9,1.9v0.8c0,1,0.8,1.9,1.9,1.9s1.9-0.8,1.9-1.9v-0.8
					C290.4-167.9,289.5-168.7,288.5-168.7z"/>
				<path class="st1" d="M288.5-162c-1,0-1.9,0.8-1.9,1.9v1.7c0,1,0.8,1.9,1.9,1.9s1.9-0.8,1.9-1.9v-1.7
					C290.4-161.2,289.5-162,288.5-162z"/>
				<path class="st1" d="M290.2-153.4c-0.3-0.6-0.9-1-1.7-1c-1,0-1.9,0.8-1.9,1.9v0.8c0,1,0.8,1.9,1.9,1.9h0.8c1,0,1.9-0.8,1.9-1.9
					C291.2-152.4,290.8-153,290.2-153.4z"/>
				<path class="st1" d="M303-153.6h-1.5c-1,0-1.9,0.8-1.9,1.9s0.8,1.9,1.9,1.9h1.5c1,0,1.9-0.8,1.9-1.9S304-153.6,303-153.6z"/>
				<path class="st1" d="M296.1-153.6h-1.5c-1,0-1.9,0.8-1.9,1.9s0.8,1.9,1.9,1.9h1.5c1,0,1.9-0.8,1.9-1.9S297.2-153.6,296.1-153.6z
					"/>
				<path class="st1" d="M309.1-153.6h-0.8c-1,0-1.9,0.8-1.9,1.9s0.8,1.9,1.9,1.9h0.8c1,0,1.9-0.8,1.9-1.9
					C311-152.7,310.1-153.6,309.1-153.6z"/>
				<path class="st1" d="M326.5-152.9h-2.8c-1,0-1.9,0.8-1.9,1.9s0.8,1.9,1.9,1.9h2.8c1,0,1.9-0.8,1.9-1.9
					C328.3-152,327.5-152.9,326.5-152.9z"/>
			</g>
			<g>
				<path class="st1" d="M482.7-367.5v-4.3c0-3.6-2.9-6.5-6.5-6.5h-9.6c-3.6,0-6.5,2.9-6.5,6.5v4.3c-0.4,0.3-0.7,0.8-0.7,1.3v1.8
					c0,0.5,0.3,1,0.7,1.3v0.5c-0.4,0.3-0.7,0.8-0.7,1.3v1.8c0,0.5,0.3,1,0.7,1.3v14.3c0,3.6,2.9,6.5,6.5,6.5h9.6
					c3.6,0,6.5-2.9,6.5-6.5v-17.4c0.4-0.3,0.7-0.8,0.7-1.3v-3.6C483.3-366.7,483.1-367.2,482.7-367.5z M466.6-375h9.6
					c1.4,0,2.6,0.9,3,2.1h-15.7C464-374.1,465.2-375,466.6-375z M479.4-343.9c0,1.8-1.4,3.2-3.2,3.2h-9.6c-1.8,0-3.2-1.4-3.2-3.2
					v-1.3h16.1V-343.9L479.4-343.9z M479.4-348.4h-16.1v-21.2h16.1V-348.4z"/>
				<path class="st1" d="M439.8-358.3c-0.9,0-1.6,0.7-1.6,1.6v0.7c0,0.9,0.7,1.6,1.6,1.6s1.6-0.7,1.6-1.6v-0.7
					C441.4-357.6,440.7-358.3,439.8-358.3z"/>
				<path class="st1" d="M439.8-352.5c-0.9,0-1.6,0.7-1.6,1.6v1.5c0,0.9,0.7,1.6,1.6,1.6s1.6-0.7,1.6-1.6v-1.5
					C441.4-351.8,440.7-352.5,439.8-352.5z"/>
				<path class="st1" d="M441.2-345c-0.3-0.5-0.8-0.9-1.4-0.9c-0.9,0-1.6,0.7-1.6,1.6v0.7c0,0.9,0.7,1.6,1.6,1.6h0.7
					c0.9,0,1.6-0.7,1.6-1.6C442.1-344.2,441.7-344.8,441.2-345z"/>
				<path class="st1" d="M452.3-345.2H451c-0.9,0-1.6,0.7-1.6,1.6s0.7,1.6,1.6,1.6h1.3c0.9,0,1.6-0.7,1.6-1.6
					S453.2-345.2,452.3-345.2z"/>
				<path class="st1" d="M446.4-345.2h-1.3c-0.9,0-1.6,0.7-1.6,1.6s0.7,1.6,1.6,1.6h1.3c0.9,0,1.6-0.7,1.6-1.6
					S447.3-345.2,446.4-345.2z"/>
				<path class="st1" d="M457.6-345.2h-0.7c-0.9,0-1.6,0.7-1.6,1.6s0.7,1.6,1.6,1.6h0.7c0.9,0,1.6-0.7,1.6-1.6
					S458.5-345.2,457.6-345.2z"/>
				<path class="st1" d="M446.5-393.3L446.5-393.3c-4-2.9-9.4-2.9-13.3,0c-3.9,2.9-5.6,7.9-4.2,12.6l0.2,0.7c0.8,2.5,1.7,5.1,3,7.9
					c0.5,1.2,0.8,2.5,0.8,3.8v2.2c0,1.9,1.2,3.6,3,4.2c0.1,0.8,0.8,1.4,1.6,1.4h0.8c0.2,0.7,0.8,1.2,1.6,1.2c0.7,0,1.4-0.5,1.6-1.2
					h0.8c0.8,0,1.5-0.6,1.6-1.3c1.7-0.6,3-2.3,3-4.2v-2.2c0-1.3,0.3-2.6,0.8-3.8c1.2-2.8,2.2-5.4,3-7.9l0.2-0.6
					C452.1-385.3,450.4-390.4,446.5-393.3z M442.3-365h-4.9c-0.5,0-0.9-0.3-1.1-0.7h7.1C443.2-365.3,442.8-365,442.3-365z
					 M443.5-368.9h-7.4c0-0.2,0-0.5,0-0.7h7.5C443.5-369.4,443.5-369.2,443.5-368.9z M447.6-381.6l-0.2,0.6
					c-0.7,2.4-1.7,4.8-2.8,7.5c-0.1,0.2-0.2,0.4-0.2,0.6h-2.9v-7.6c0.4-0.3,0.6-0.7,0.6-1.3c0-0.9-0.7-1.6-1.6-1.6h-1.2
					c-0.9,0-1.6,0.7-1.6,1.6c0,0.5,0.2,1,0.6,1.3v7.6h-2.9v0c-0.1-0.2-0.2-0.4-0.2-0.6c-1.2-2.7-2.1-5.2-2.8-7.5l-0.2-0.7
					c-1-3.3,0.2-6.9,3-9c1.4-1,3.1-1.5,4.8-1.5c1.7,0,3.3,0.5,4.7,1.5l0,0C447.4-388.6,448.6-385,447.6-381.6z"/>
				<path class="st1" d="M472.6-344.6h-2.4c-0.9,0-1.6,0.7-1.6,1.6s0.7,1.6,1.6,1.6h2.4c0.9,0,1.6-0.7,1.6-1.6
					S473.5-344.6,472.6-344.6z"/>
			</g>
			<g>
				<path class="st1" d="M150.2-277.4h-30.8c-0.9,0-1.6,0.7-1.6,1.6v33.6c0,0.9,0.7,1.6,1.6,1.6h30.8c0.9,0,1.6-0.7,1.6-1.6v-33.6
					C151.9-276.7,151.2-277.4,150.2-277.4z M121-243.8v-30.3h8.1c0.2,0.6,0.8,1.1,1.5,1.1h8.3c0.7,0,1.3-0.4,1.5-1.1h8.1v30.3H121z"
					/>
				<path class="st1" d="M145.6-237.7c-0.7-0.8-1.7-1.3-2.7-1.3h-16.2c-1.1,0-2.1,0.5-2.7,1.3c-0.7,0.8-1,1.9-0.8,2.9l0.3,2.3
					c0.3,1.8,1.8,3.1,3.6,3.1h15.5c1.8,0,3.3-1.3,3.6-3.1l0.3-2.3C146.6-235.8,146.3-236.9,145.6-237.7z M143.2-235.3l-0.3,2.3
					c0,0.2-0.2,0.3-0.3,0.3h-15.5c-0.2,0-0.3-0.1-0.3-0.3l-0.3-2.3c0-0.1,0-0.2,0.1-0.3c0-0.1,0.1-0.1,0.3-0.1h16.2
					c0.1,0,0.2,0.1,0.3,0.1C143.2-235.5,143.3-235.4,143.2-235.3z"/>
				<path class="st1" d="M129.2-266.8h-2.7v-1.2h2.7c0.9,0,1.6-0.7,1.6-1.6c0-0.9-0.7-1.6-1.6-1.6h-4.4c-0.9,0-1.6,0.7-1.6,1.6v8.8
					c0,0.9,0.7,1.6,1.6,1.6h4.4c0.9,0,1.6-0.7,1.6-1.6v-4.3C130.8-266.1,130.1-266.8,129.2-266.8z M127.5-262.6h-1.1v-1h1.1V-262.6z
					"/>
				<path class="st1" d="M134.6-271.3c-0.9,0-1.6,0.7-1.6,1.6v8.8c0,0.9,0.7,1.6,1.6,1.6c0.9,0,1.6-0.7,1.6-1.6v-8.8
					C136.2-270.6,135.5-271.3,134.6-271.3z"/>
				<circle class="st1" cx="138.9" cy="-260.9" r="1.5"/>
				<path class="st1" d="M145-268.7c-0.9,0-1.6,0.7-1.6,1.6v1.2h-0.6v-1.2c0-0.9-0.7-1.6-1.6-1.6c-0.9,0-1.6,0.7-1.6,1.6v2.9
					c0,0.9,0.7,1.6,1.6,1.6h2.3v1.6c0,0.9,0.7,1.6,1.6,1.6s1.6-0.7,1.6-1.6v-6.2C146.6-268,145.9-268.7,145-268.7z"/>
				<path class="st1" d="M144.7-251.5h-3l-2.3-4.8c-0.3-0.6-0.8-0.9-1.5-0.9c-0.6,0-1.2,0.3-1.5,0.9l-2.9,5.6l-1.9-3.9
					c-0.2-0.5-0.7-0.9-1.3-0.9c-0.6-0.1-1.1,0.1-1.5,0.6l-2.9,3.5h-1.6c-0.9,0-1.6,0.7-1.6,1.6c0,0.9,0.7,1.6,1.6,1.6h2.4
					c0.5,0,1-0.2,1.3-0.6l1.7-2.1l2.2,4.6c0.3,0.6,0.8,0.9,1.5,0.9c0,0,0,0,0,0c0.6,0,1.2-0.3,1.5-0.9l3-5.7l1.4,2.8
					c0.3,0.6,0.8,0.9,1.5,0.9h4c0.9,0,1.6-0.7,1.6-1.6C146.4-250.8,145.7-251.5,144.7-251.5z"/>
				<path class="st1" d="M158.6-242.6v-36.3c0-2.9-2.3-5.2-5.2-5.2h-37.1c-2.9,0-5.2,2.3-5.2,5.2v48.9c0,2.9,2.3,5.2,5.2,5.2h37.1
					c2.9,0,5.2-2.3,5.2-5.2v-5.7c0.7-0.2,1.3-0.8,1.3-1.6v-3.7C159.9-241.8,159.3-242.5,158.6-242.6z M155.3-230
					c0,1.1-0.9,1.9-1.9,1.9h-37.1c-1.1,0-1.9-0.9-1.9-1.9v-48.9c0-1.1,0.9-1.9,1.9-1.9h37.1c1.1,0,1.9,0.9,1.9,1.9V-230z"/>
			</g>
			<g>
				<path class="st1" d="M271.5-327.2L271.5-327.2c-1.7-1.1-4-2.1-6.8-2.9c-5.1-1.4-11.8-2.2-18.8-2.2c-7,0-13.7,0.8-18.8,2.2
					c-2.8,0.8-5.1,1.8-6.8,2.9c-3.6,2.4-4.4,5.3-4.4,7.3c0,2,0.8,4.9,4.4,7.3c1.7,1.1,4,2.1,6.8,2.9c5.1,1.4,11.8,2.2,18.8,2.2
					s13.7-0.8,18.8-2.2c2.8-0.8,5.1-1.8,6.8-2.9c3.6-2.4,4.4-5.3,4.4-7.3C275.9-321.9,275.1-324.8,271.5-327.2z M254.1-311.2
					c-2.6,0.3-5.4,0.4-8.2,0.4c-2.8,0-5.6-0.1-8.2-0.4v-3.1c2.7,0.2,5.4,0.3,8.2,0.3c2.8,0,5.6-0.1,8.2-0.3V-311.2z M226-319.4
					c-0.7-0.2-1.4-0.3-2.1-0.5l0,0c0,0,0,0,0,0c0,0,0,0,0,0c0,0,0-0.1,0-0.1c0,0,0,0,0,0c0.7-0.2,1.3-0.3,2.1-0.5
					c5.6-1.3,12.6-1.9,19.9-1.9s14.3,0.7,19.9,1.9c0.7,0.2,1.4,0.3,2.1,0.5c0,0,0,0,0,0c0,0,0,0.1,0,0.1c0,0,0,0,0,0
					c-0.6,0.2-1.3,0.3-2.1,0.5c-5.6,1.3-12.6,1.9-19.9,1.9C238.6-317.4,231.5-318.1,226-319.4z M269.6-315.4
					c-1.4,0.9-3.4,1.8-5.9,2.5c-1.9,0.5-4,1-6.4,1.3v-3c3.3-0.3,6.4-0.8,9.1-1.4c0.8-0.2,1.5-0.4,2.2-0.5c1.5-0.4,2.5-1.7,2.5-3.3
					c0-1.6-1-2.9-2.5-3.3c-0.7-0.2-1.4-0.4-2.2-0.5c-5.8-1.3-13.1-2-20.6-2s-14.8,0.7-20.6,2c-0.8,0.2-1.5,0.4-2.2,0.5
					c-1.5,0.4-2.5,1.7-2.5,3.3c0,1.6,1,2.9,2.5,3.3c0.7,0.2,1.4,0.4,2.2,0.5c2.7,0.6,5.8,1.1,9.1,1.4v3c-2.3-0.3-4.5-0.8-6.4-1.3
					c-2.5-0.7-4.4-1.5-5.9-2.5c-1.9-1.3-2.9-2.8-2.9-4.5c0-1.7,1-3.2,2.9-4.5c1.4-0.9,3.4-1.8,5.9-2.5c4.8-1.3,11.2-2.1,17.9-2.1
					s13.1,0.7,17.9,2.1c2.5,0.7,4.4,1.5,5.9,2.5c1.9,1.3,2.9,2.8,2.9,4.5C272.6-318.2,271.6-316.7,269.6-315.4z"/>
				<path class="st1" d="M249.4-339.6c-1.9-1.9-5.1-1.9-7,0c-0.6,0.6-0.6,1.7,0,2.3c0.6,0.6,1.7,0.6,2.3,0c0.6-0.6,1.7-0.6,2.3,0
					c0.3,0.3,0.7,0.5,1.2,0.5s0.8-0.2,1.2-0.5C250-337.9,250-339,249.4-339.6z"/>
				<path class="st1" d="M252-343.7c-1.6-1.6-3.8-2.5-6.1-2.5c-2.3,0-4.5,0.9-6.1,2.5c-0.6,0.6-0.6,1.7,0,2.3c0.6,0.6,1.7,0.6,2.3,0
					c2.1-2.1,5.4-2.1,7.5,0c0.3,0.3,0.7,0.5,1.2,0.5s0.8-0.2,1.2-0.5C252.6-342,252.6-343.1,252-343.7z"/>
				<path class="st1" d="M254.8-347.6c-2.4-2.4-5.6-3.7-9-3.7s-6.6,1.3-9,3.7c-0.6,0.6-0.6,1.7,0,2.3c0.6,0.6,1.7,0.6,2.3,0
					c1.8-1.8,4.1-2.7,6.6-2.7s4.8,1,6.6,2.7c0.3,0.3,0.7,0.5,1.2,0.5c0.4,0,0.8-0.2,1.2-0.5C255.5-345.9,255.5-347,254.8-347.6z"/>
			</g>
			<g>
				<path class="st1" d="M32.9-94.2c-2.1-1.6-5.2-1.2-6.8,0.9c-0.5,0.7-0.4,1.7,0.3,2.3c0.4,0.3,0.8,0.4,1.2,0.3
					c0.4-0.1,0.8-0.3,1.1-0.6c0.5-0.7,1.5-0.8,2.2-0.3c0.7,0.5,1.7,0.4,2.3-0.3C33.8-92.6,33.7-93.6,32.9-94.2z"/>
				<path class="st1" d="M34.9-98.5c-3.7-2.8-9-2.1-11.8,1.6c-0.5,0.7-0.4,1.7,0.3,2.3c0.7,0.5,1.7,0.4,2.3-0.3c1.7-2.3,5-2.7,7.2-1
					c0.4,0.3,0.8,0.4,1.2,0.3c0.4-0.1,0.8-0.3,1.1-0.6C35.8-97,35.6-98,34.9-98.5z"/>
				<path class="st1" d="M37.2-102.6c-2.6-2-5.9-2.9-9.2-2.4s-6.2,2.1-8.2,4.8c-0.5,0.7-0.4,1.7,0.3,2.3c0.7,0.5,1.7,0.4,2.3-0.3
					c1.5-1.9,3.6-3.2,6.1-3.5s4.8,0.3,6.8,1.8c0.4,0.3,0.8,0.4,1.2,0.3c0.4-0.1,0.8-0.3,1.1-0.6C38.1-101.1,37.9-102.1,37.2-102.6z"
					/>
				<path class="st1" d="M72-79.2l-0.9-6.3c-0.5-4-4.3-6.9-8.3-6.3l-6.5,0.9l-0.1-0.5c-0.1-0.4-0.3-0.8-0.6-1.1
					c-0.3-0.3-0.8-0.4-1.2-0.3c0,0,0,0,0,0L49.3-92l-0.5-3.5l2.5-0.3c0.9-0.1,1.5-0.9,1.4-1.8s-0.9-1.5-1.8-1.4l-8.3,1.1
					c-0.9,0.1-1.5,0.9-1.4,1.8c0.1,0.9,0.9,1.5,1.8,1.4l2.5-0.3l0.5,3.5l-5.2,0.7c-0.9,0.1-1.5,0.9-1.4,1.8l0.1,0.4L34-87.8
					c-0.2-0.8-1-1.3-1.8-1.2l-3.9,0.5c-0.8,0.1-1.4,0.8-1.4,1.6L13.8-85c-0.9,0.1-1.5,0.9-1.4,1.8c0.1,0.9,0.9,1.5,1.8,1.4L40-85.3
					l0.3,2.5l-25.8,3.5c-0.9,0.1-1.5,0.9-1.4,1.8s0.9,1.5,1.8,1.4l25.8-3.5l0.1,0.5c0.1,0.4,0.3,0.8,0.6,1.1
					c0.3,0.3,0.8,0.4,1.2,0.3c0,0,0,0,0,0l13.6-1.9c0.9-0.1,1.5-0.9,1.4-1.8l-0.1-0.5l4.9-0.7l0.6,4.6c-0.8,0.2-1.3,1-1.2,1.8
					c0.1,0.9,0.9,1.5,1.8,1.4l8.5-1.2c0.9-0.1,1.5-0.9,1.4-1.8C73.5-78.6,72.8-79.2,72-79.2z M54.2-82.6l-10.4,1.4L43-87.8l10.4-1.4
					L54.2-82.6z M68.7-79.3l-2.5,0.3l-0.6-4.3c-0.2-1.7-1.8-2.9-3.5-2.6l-5,0.7l-0.3-2.5l6.5-0.9c2.2-0.3,4.3,1.3,4.6,3.5L68.7-79.3
					z"/>
				<path class="st1" d="M73.5-65.8l-2.6-5.3c-0.5-0.9-1.5-1.5-2.5-1.3c-1,0.1-1.9,0.9-2.1,1.9l-1.1,5.8c-0.3,1.4,0.2,2.8,1.1,3.9
					s2.4,1.5,3.8,1.3s2.6-1.1,3.3-2.3C74.1-63,74.2-64.6,73.5-65.8z M70.6-63.3c-0.2,0.3-0.5,0.6-0.9,0.6c-0.4,0.1-0.7-0.1-1-0.4
					c-0.3-0.3-0.4-0.6-0.3-1l0.7-3.4l1.5,3.1C70.8-64,70.8-63.7,70.6-63.3z"/>
			</g>
			<g>
				<path class="st1" d="M250.1-123.3c0.7,2.2,2.8,3.8,5.3,3.8c3,0,5.5-2.5,5.5-5.5s-2.5-5.5-5.5-5.5c-2.5,0-4.5,1.6-5.3,3.8h-4.4
					v-2.6h1.9c0.9,0,1.7-0.7,1.7-1.7v-3.8c0-0.6-0.3-1.2-0.9-1.5l-7.6-4v-6h9.3c0.7,2.2,2.8,3.8,5.3,3.8c3,0,5.5-2.5,5.5-5.5
					s-2.5-5.5-5.5-5.5c-2.5,0-4.5,1.6-5.3,3.8h-11c-0.9,0-1.7,0.7-1.7,1.7v5.9l-5.8-3.1c-0.5-0.3-1.1-0.3-1.6,0l-5.8,3.1v-5.9
					c0-0.9-0.7-1.7-1.7-1.7h-10.8c-0.7-2.2-2.8-3.8-5.3-3.8c-3,0-5.5,2.5-5.5,5.5s2.5,5.5,5.5,5.5c2.5,0,4.5-1.6,5.3-3.8h9.2v6
					l-7.6,4c-0.5,0.3-0.9,0.9-0.9,1.5v3.8c0,0.9,0.7,1.7,1.7,1.7h1.9v2.6h-4.4c-0.7-2.2-2.8-3.8-5.3-3.8c-3,0-5.5,2.5-5.5,5.5
					c0,3,2.5,5.5,5.5,5.5c2.5,0,4.5-1.6,5.3-3.8h4.4v10.7h-4.4c-0.7-2.2-2.8-3.8-5.3-3.8c-3,0-5.5,2.5-5.5,5.5s2.5,5.5,5.5,5.5
					c2.5,0,4.5-1.6,5.3-3.8h4.4v1.4c0,0.9,0.7,1.7,1.7,1.7h10.8h4.8h10.8c0.9,0,1.7-0.7,1.7-1.7v-1.4h3.6c0.7,2.2,2.8,3.8,5.3,3.8
					c3,0,5.5-2.5,5.5-5.5c0-3-2.5-5.5-5.5-5.5c-2.5,0-4.5,1.6-5.3,3.8h-3.6v-10.7H250.1z M255.4-127.2c1.2,0,2.2,1,2.2,2.2
					c0,1.2-1,2.2-2.2,2.2s-2.2-1-2.2-2.2C253.2-126.2,254.2-127.2,255.4-127.2z M255.4-150.1c1.2,0,2.2,1,2.2,2.2s-1,2.2-2.2,2.2
					s-2.2-1-2.2-2.2C253.2-149.1,254.2-150.1,255.4-150.1z M206.5-145.7c-1.2,0-2.2-1-2.2-2.2s1-2.2,2.2-2.2c1.2,0,2.2,1,2.2,2.2
					S207.7-145.7,206.5-145.7z M206.4-122.8c-1.2,0-2.2-1-2.2-2.2c0-1.2,1-2.2,2.2-2.2c1.2,0,2.2,1,2.2,2.2
					C208.6-123.8,207.6-122.8,206.4-122.8z M206.4-108.8c-1.2,0-2.2-1-2.2-2.2s1-2.2,2.2-2.2c1.2,0,2.2,1,2.2,2.2
					C208.6-109.8,207.6-108.8,206.4-108.8z M231.6-109.6h-1.5v-5.8h1.5V-109.6z M242.4-109.6h-7.5v-7.5c0-0.9-0.7-1.7-1.7-1.7h-4.8
					c-0.9,0-1.7,0.7-1.7,1.7v7.5h-7.5v-19.7h23.1V-109.6L242.4-109.6z M215.8-132.6v-1.2l15.1-8l15.1,8v1.2H215.8z M254.6-113.2
					c1.2,0,2.2,1,2.2,2.2s-1,2.2-2.2,2.2c-1.2,0-2.2-1-2.2-2.2C252.4-112.2,253.4-113.2,254.6-113.2z"/>
				<path class="st1" d="M228.1-125.7h-4c-0.9,0-1.7,0.7-1.7,1.7s0.7,1.7,1.7,1.7h4c0.9,0,1.7-0.7,1.7-1.7
					C229.8-124.9,229-125.7,228.1-125.7z"/>
				<path class="st1" d="M237.7-125.7h-4c-0.9,0-1.7,0.7-1.7,1.7s0.7,1.7,1.7,1.7h4c0.9,0,1.7-0.7,1.7-1.7
					C239.3-124.9,238.6-125.7,237.7-125.7z"/>
			</g>
			<g>
				<path class="st1" d="M294.1-236.9l-0.6,0l0.3-35.2c0-0.9-0.7-1.7-1.7-1.7l-52-0.5c-0.9,0-1.7,0.7-1.7,1.7l-0.3,35.2l-0.6,0
					c-0.9,0-1.7,0.7-1.7,1.7l-0.1,7c0,0.9,0.7,1.7,1.7,1.7l56.6,0.5c0.9,0,1.7-0.7,1.7-1.7l0.1-7C295.8-236.2,295-236.9,294.1-236.9
					z M241.8-270.9l48.6,0.4l0,2.7l-48.6-0.4L241.8-270.9z M289.3-264.4l-0.2,21.4l-46.6-0.4l0.2-21.4L289.3-264.4z M241.5-240.1
					l48.6,0.4l0,2.7l-48.6-0.4L241.5-240.1z M292.3-229.9l-12.5-0.1c-0.1-0.8-0.8-1.4-1.6-1.4l-24.9-0.2c-0.8,0-1.5,0.6-1.7,1.3
					l-12.5-0.1l0-3.7l0.6,0l52,0.5l0.6,0L292.3-229.9z"/>
				<path class="st1" d="M269.4-248c-0.9-1-2.2-1.5-3.5-1.5s-2.6,0.5-3.6,1.4c-0.7,0.7-0.7,1.8,0,2.5c0.7,0.7,1.8,0.7,2.5,0
					c0.3-0.3,0.7-0.4,1.1-0.4c0.4,0,0.8,0.2,1.1,0.4c0.3,0.3,0.8,0.5,1.2,0.5s0.9-0.2,1.2-0.5C270.1-246.2,270.1-247.3,269.4-248z"
					/>
				<path class="st1" d="M272-252c-3.3-3.4-8.8-3.4-12.2-0.1c-0.7,0.7-0.7,1.8,0,2.5c0.7,0.7,1.8,0.7,2.5,0c2-2,5.3-2,7.2,0.1
					c0.3,0.3,0.8,0.5,1.2,0.5c0.4,0,0.9-0.2,1.2-0.5C272.7-250.2,272.7-251.3,272-252z"/>
				<path class="st1" d="M274.9-255.8c-4.9-5-12.9-5.1-17.9-0.2c-0.7,0.7-0.7,1.8,0,2.5c0.7,0.7,1.8,0.7,2.5,0
					c3.6-3.5,9.4-3.5,13,0.1c0.3,0.3,0.8,0.5,1.2,0.5c0.4,0,0.9-0.2,1.2-0.5C275.6-254,275.6-255.1,274.9-255.8z"/>
			</g>
			<g>
				<path class="st1" d="M179-167.2h-6v-16c0-0.8-0.7-1.5-1.5-1.5h-25.2c-0.8,0-1.5,0.7-1.5,1.5v16h-6c-3.3,0-6,2.7-6,6v15.6
					c0,1.9,1.5,3.4,3.4,3.4h2.2v3c0,2.4,2,4.4,4.4,4.4h22.8h8.3c1,0,1.8,0.8,1.8,1.8v1.2v0.5c0,0.8,0.7,1.5,1.5,1.5
					c0.8,0,1.5-0.7,1.5-1.5v-1.7c0-2.7-2.2-4.9-4.9-4.9h-18.4h-12.7c-0.8,0-1.4-0.6-1.4-1.4v-2.9v-0.2h40.1c1.9,0,3.4-1.5,3.4-3.4
					v-15.6C185-164.5,182.3-167.2,179-167.2z M147.8-181.7H170v14.5h-22.2V-181.7z M181.9-145.7c0,0.2-0.1,0.3-0.3,0.3h-45.4
					c-0.2,0-0.3-0.1-0.3-0.3v-1h46L181.9-145.7L181.9-145.7z M181.9-149.7h-46v-11.6c0-1.6,1.3-2.9,2.9-2.9H179
					c1.6,0,2.9,1.3,2.9,2.9V-149.7z"/>
				<path class="st1" d="M166.7-177.9h-15.5c-0.8,0-1.5,0.7-1.5,1.5c0,0.8,0.7,1.5,1.5,1.5h15.5c0.8,0,1.5-0.7,1.5-1.5
					C168.2-177.2,167.5-177.9,166.7-177.9z"/>
				<path class="st1" d="M166.7-173h-15.5c-0.8,0-1.5,0.7-1.5,1.5c0,0.8,0.7,1.5,1.5,1.5h15.5c0.8,0,1.5-0.7,1.5-1.5
					C168.2-172.3,167.5-173,166.7-173z"/>
				<path class="st1" d="M142.8-156.8c-0.8,0-1.5,0.7-1.5,1.5v2c0,0.8,0.7,1.5,1.5,1.5c0.8,0,1.5-0.7,1.5-1.5v-2
					C144.3-156.1,143.6-156.8,142.8-156.8z"/>
				<path class="st1" d="M147.7-156.8c-0.8,0-1.5,0.7-1.5,1.5v2c0,0.8,0.7,1.5,1.5,1.5c0.8,0,1.5-0.7,1.5-1.5v-2
					C149.2-156.1,148.5-156.8,147.7-156.8z"/>
				<path class="st1" d="M178.3-155.8h-2c-0.8,0-1.5,0.7-1.5,1.5s0.7,1.5,1.5,1.5h2c0.8,0,1.5-0.7,1.5-1.5S179.1-155.8,178.3-155.8z
					"/>
			</g>
			<path class="st1" d="M80.9-272.3h-4.3c-4,0-7.6,2.7-8.7,6.5l-2.4,8.3c-0.6,2.2-2.7,3.7-5,3.7h-7.1c-1.7,0-3-1.3-3-3v-3.1
				c0.1,0.1,0.2,0.2,0.3,0.3c0.4,0.4,0.9,0.6,1.4,0.6h7.4c1,0,1.8-0.8,1.9-1.7l3.4-33.1c0.1-0.5-0.1-1.1-0.5-1.5
				c-0.4-0.4-0.9-0.6-1.4-0.6H50.5v-6.4c0.4,0.1,0.8,0.1,1.1,0.2c0.3,0,0.6,0,0.9,0c3.2,0,6.6-1.4,9.5-3.8c3.2-2.7,5.3-6.1,5.6-9.5
				c0-0.4,0.2-1.5-0.6-2.4c-0.7-0.9-1.8-1-2.2-1c-3.3-0.3-7.1,1-10.2,3.3c-2.7,2-4.7,4.7-5.7,7.4c-0.1,0-0.2,0-0.4,0
				c-0.1,0-0.2,0-0.4,0c-1-2.8-3-5.4-5.7-7.4c-3.2-2.4-6.9-3.6-10.2-3.3c-0.4,0-1.5,0.1-2.2,1c-0.7,0.9-0.6,2-0.6,2.4
				c0.3,3.4,2.4,6.8,5.6,9.5c3,2.4,6.4,3.8,9.5,3.8c0.3,0,0.6,0,0.9,0c0.3,0,0.7-0.1,1.1-0.2v6.4H33.9c-0.5,0-1.1,0.2-1.4,0.6
				c-0.4,0.4-0.5,1-0.5,1.5l3.4,33.1c0.1,1,0.9,1.7,1.9,1.7h7.4c0.5,0,1-0.2,1.4-0.6c0.1-0.1,0.2-0.2,0.3-0.3v3.1
				c0,3.8,3.1,6.9,6.9,6.9h7.1c4,0,7.6-2.7,8.7-6.5l2.4-8.3c0.6-2.2,2.7-3.7,5-3.7h4.3c1.1,0,1.9-0.9,1.9-1.9
				C82.9-271.4,82-272.3,80.9-272.3z M63.7-315.1c-0.5,2.1-2,4.3-4.1,6c-2.3,1.9-5,3-7.2,2.9C53.6-310.8,58.9-314.9,63.7-315.1z
				 M37.5-309c-2.1-1.8-3.6-4-4.1-6c4.8,0.1,10.1,4.3,11.3,8.9C42.5-306.1,39.8-307.1,37.5-309z M36.1-292.1h24.6l-2.1,20.7H38.2
				L36.1-292.1z M48.4-264.4c-1.6,0-3.2,0.5-4.4,1.6H39l-0.5-4.6h19.6l-0.5,4.6h-4.9C51.5-263.9,50-264.4,48.4-264.4z"/>
			<g>
				<path class="st1" d="M222.6-183.8c0.3-0.9-0.2-1.8-1-2.1l-5-1.7l2.4-7.1l5,1.7c0.9,0.3,1.8-0.2,2.1-1c0.3-0.9-0.2-1.8-1-2.1
					l-5-1.7l1.3-4c0.3-0.9-0.2-1.8-1-2.1l-8.8-3c-6.2-2.1-12.8,0.9-15.4,6.7c-0.1,0-0.1-0.1-0.2-0.1l-10.3-3.4
					c-0.9-0.3-1.8,0.2-2.1,1c-0.1,0.4-0.1,0.9,0.1,1.3s0.5,0.7,1,0.8l10.3,3.4c0.1,0,0.1,0,0.2,0.1c-0.7,2.9-0.2,5.8,1,8.4
					c1.4,2.9,4,5.2,7.2,6.3l8.8,3c0.9,0.3,1.8-0.2,2.1-1l1.3-4l5,1.7C221.4-182.5,222.3-183,222.6-183.8z M204.3-185.5
					c-4.8-1.6-7.5-6.9-5.8-11.7l0.2-0.7c1.6-4.8,6.9-7.5,11.7-5.8l7.3,2.4l-6.1,18.2L204.3-185.5z"/>
				<path class="st1" d="M260.3-175.1c0.9,0.3,1.8-0.2,2.1-1c0.3-0.9-0.2-1.8-1-2.1l-10.3-3.4c-0.1,0-0.1,0-0.2-0.1
					c0.6-2.8,0.3-5.7-1-8.4c-1.5-3-4.1-5.2-7.3-6.3l-8.8-3c-0.9-0.3-1.8,0.2-2.1,1l-7.2,21.4c-0.1,0.4-0.1,0.9,0.1,1.3
					c0.2,0.4,0.5,0.7,1,0.8l8.8,3c3.2,1.1,6.6,0.8,9.6-0.7c2.6-1.3,4.7-3.4,5.8-6.1c0.1,0,0.1,0.1,0.2,0.1L260.3-175.1z
					 M235.5-175.1l-7.3-2.4l6.1-18.2l7.3,2.4c2.3,0.8,4.2,2.4,5.3,4.6c1.1,2.2,1.3,4.7,0.5,7.1l-0.2,0.7c-0.8,2.3-2.4,4.2-4.6,5.3
					C240.3-174.5,237.8-174.3,235.5-175.1z"/>
				<path class="st1" d="M235.3-180.2l3.1-9.2c0.3-0.9-0.2-1.8-1-2.1c-0.9-0.3-1.8,0.2-2.1,1l-3.1,9.2c-0.1,0.4-0.1,0.9,0.1,1.3
					c0.2,0.4,0.5,0.7,1,0.8C234.1-178.8,235-179.3,235.3-180.2z"/>
				<path class="st1" d="M210.8-188.4l3.1-9.2c0.3-0.9-0.2-1.8-1-2.1c-0.9-0.3-1.8,0.2-2.1,1l-3.1,9.2c-0.1,0.4-0.1,0.9,0.1,1.3
					c0.2,0.4,0.5,0.7,1,0.8C209.6-187,210.6-187.5,210.8-188.4z"/>
			</g>
			<g>
				<path class="st1" d="M329-368l-1.6-1.1l-1.2-3.3c-0.2-0.6-0.7-1-1.3-1.1l-17-2.5l-7.2-5c-0.3-0.2-0.6-0.3-0.9-0.3h-1.1
					c-0.9,0-1.7,0.7-1.7,1.7c0,0.7,0.4,1.3,1.1,1.6v2.7h-1.3c0-0.9-0.8-1.6-1.7-1.6s-1.7,0.7-1.7,1.6h-4v-3.3c0-0.9-0.7-1.7-1.7-1.7
					c-0.9,0-1.7,0.7-1.7,1.7v3.3h-0.9v-4.2c0-0.6-0.3-1.2-0.9-1.5c-0.5-0.3-1.2-0.3-1.7,0l-10.8,6.7c-0.5,0.3-0.8,0.8-0.8,1.4v4.8
					l-1,2c-0.1,0.2-0.2,0.5-0.2,0.7c0,1.1,0.5,2,1.1,3c0.3,0.5,0.7,1.2,1,2c0.3,0.6,0.9,1,1.5,1h5.5c0.9,1.9,2.8,3.2,5,3.2
					c2.2,0,4.1-1.3,5-3.2h22.4c0.9,1.9,2.8,3.2,5,3.2c2.2,0,4.1-1.3,5-3.2h4.6c0.7,0,1.3-0.4,1.5-1l2.3-5.7
					C329.9-366.7,329.7-367.6,329-368z M284-359.4c-1.2,0-2.1-1-2.1-2.1c0-1.2,1-2.1,2.1-2.1c1.2,0,2.1,1,2.1,2.1
					C286.1-360.4,285.2-359.4,284-359.4z M316.3-359.4c-1.2,0-2.1-1-2.1-2.1c0-1.2,1-2.1,2.1-2.1c1.2,0,2.1,1,2.1,2.1
					C318.4-360.4,317.5-359.4,316.3-359.4z M324.7-362.6h-3v0c-0.5-2.5-2.7-4.5-5.4-4.5c-2.7,0-4.9,1.9-5.4,4.5h-21.6
					c-0.5-2.5-2.7-4.5-5.4-4.5c-2.7,0-4.9,1.9-5.4,4.5h-4c-0.3-0.5-0.5-0.9-0.7-1.2c-0.2-0.4-0.5-0.8-0.6-1.1l0.9-1.9
					c0.1-0.2,0.2-0.5,0.2-0.7v-4.3l7.5-4.7v2.8c0,0.9,0.7,1.7,1.7,1.7h16.2c0.9,0,1.7-0.7,1.7-1.7v-2.7l4.9,3.4
					c0.2,0.1,0.5,0.2,0.7,0.3l16.4,2.4l1.1,2.9c0.1,0.3,0.3,0.6,0.6,0.8l0.9,0.6L324.7-362.6z"/>
				<path class="st1" d="M294.7-368.4H293c-0.9,0-1.7,0.7-1.7,1.7c0,0.9,0.7,1.7,1.7,1.7h1.7c0.9,0,1.7-0.7,1.7-1.7
					C296.4-367.7,295.6-368.4,294.7-368.4z"/>
				<path class="st1" d="M303.2-390c-0.9-0.9-2.1-1.4-3.4-1.4s-2.5,0.5-3.4,1.4c-0.7,0.7-0.7,1.7,0,2.4c0.7,0.7,1.7,0.7,2.4,0
					c0.3-0.3,0.6-0.4,1-0.4s0.7,0.1,1,0.4c0.3,0.3,0.8,0.5,1.2,0.5s0.9-0.2,1.2-0.5C303.8-388.3,303.8-389.3,303.2-390z"/>
				<path class="st1" d="M305.6-393.9c-1.5-1.5-3.6-2.4-5.8-2.4s-4.2,0.9-5.8,2.4c-0.7,0.7-0.7,1.7,0,2.4c0.7,0.7,1.7,0.7,2.4,0
					c0.9-0.9,2.1-1.4,3.4-1.4c1.3,0,2.5,0.5,3.4,1.4c0.3,0.3,0.8,0.5,1.2,0.5c0.4,0,0.9-0.2,1.2-0.5
					C306.3-392.1,306.3-393.2,305.6-393.9z"/>
				<path class="st1" d="M308.3-397.5c-2.3-2.3-5.3-3.5-8.5-3.5s-6.2,1.3-8.5,3.5c-0.7,0.7-0.7,1.7,0,2.4c0.7,0.7,1.7,0.7,2.4,0
					c1.6-1.6,3.8-2.5,6.1-2.5s4.5,0.9,6.1,2.5c0.3,0.3,0.8,0.5,1.2,0.5s0.9-0.2,1.2-0.5C309-395.8,309-396.8,308.3-397.5z"/>
			</g>
			<g>
				<path class="st1" d="M230-283.8l-2.8-1.7l0.3-0.6c0.4-0.8,0.2-1.8-0.6-2.3c-2.6-1.6-6-0.9-7.8,1.5l-12.8,17.6
					c-0.5,0-0.9,0.1-1.3,0.2c-1.4,0.4-2.6,1.4-3.3,2.8l-3.7,7.7l-16.3,23.3c0,0,0,0,0,0.1c-0.7,1.2-1,2.6-0.7,3.9
					c0.3,1.3,1.1,2.5,2.3,3.2l5.1,3.2c0,0,0,0,0,0c1.2,0.8,2.6,0.9,3.9,0.6c1.3-0.3,2.5-1.1,3.2-2.3c0,0,0-0.1,0-0.1l13.8-24.8
					l5.3-6.7c0.9-1.2,1.3-2.7,1.1-4.2c-0.1-0.5-0.2-0.9-0.4-1.3l6.6-12.5l2.2,1.3c0.4,0.3,0.9,0.3,1.3,0.2c0.4-0.1,0.8-0.4,1.1-0.8
					c0.2-0.4,0.3-0.8,0.2-1.3c0.4-0.1,0.8-0.4,1-0.8c0.2-0.4,0.3-0.8,0.2-1.3c0.4-0.1,0.8-0.4,1-0.8c0.2-0.4,0.3-0.8,0.2-1.3
					c0.4-0.1,0.8-0.4,1-0.8C231.1-282.3,230.8-283.3,230-283.8z M192.7-228.5c-0.5,0.8-1.5,1-2.3,0.5l0,0l-5.1-3.2
					c-0.4-0.2-0.6-0.6-0.7-1c-0.1-0.4,0-0.9,0.2-1.2l6.9-9.8c1.6,2.3,4.1,3.8,6.9,4.3L192.7-228.5z M200.4-242.3c-0.1,0-0.1,0-0.2,0
					c-2.7,0-5.1-1.5-6.3-3.9c0-0.1-0.1-0.1-0.1-0.2l6.6-9.5c1.4,1.7,3.4,2.9,5.6,3.5L200.4-242.3z M212.5-261.8c0.1,0.5,0,1-0.4,1.4
					l-3.9,4.8c-2.5-0.1-4.8-1.5-6-3.7l2.6-5.6c0.2-0.5,0.6-0.8,1.1-0.9c0.5-0.1,1-0.1,1.4,0.2l4.2,2.6
					C212.1-262.7,212.4-262.3,212.5-261.8z M213-266.3l-3.1-1.9l1.5-2.1l2.5,1.6c0.1,0,0.2,0.1,0.2,0.1L213-266.3z M215.8-271.7
					C215.8-271.7,215.8-271.7,215.8-271.7l-2.4-1.5l8.5-11.8c0.3-0.5,0.8-0.8,1.4-0.9L215.8-271.7z"/>
				<path class="st1" d="M201.5-251.4c-0.8-0.5-1.9-0.3-2.4,0.6l-1.3,2.1c-0.5,0.8-0.3,1.9,0.6,2.4c0.4,0.3,0.9,0.3,1.3,0.2
					s0.8-0.4,1.1-0.8l1.3-2.1C202.6-249.8,202.4-250.9,201.5-251.4z"/>
				<path class="st1" d="M203.5-275.7c-1.1-0.7-2.5-0.9-3.8-0.6s-2.4,1.1-3.1,2.2c-0.5,0.8-0.3,1.9,0.6,2.4c0.8,0.5,1.9,0.3,2.4-0.6
					c0.2-0.3,0.5-0.6,0.9-0.7c0.4-0.1,0.8,0,1.1,0.2c0.4,0.3,0.9,0.3,1.3,0.2c0.4-0.1,0.8-0.4,1.1-0.8
					C204.6-274.1,204.4-275.2,203.5-275.7z"/>
				<path class="st1" d="M205.1-280.2c-4-2.5-9.4-1.3-11.9,2.7c-0.5,0.8-0.3,1.9,0.6,2.4c0.8,0.5,1.9,0.3,2.4-0.6
					c1.5-2.4,4.6-3.1,7-1.6c0.4,0.3,0.9,0.3,1.3,0.2c0.4-0.1,0.8-0.4,1.1-0.8C206.2-278.6,205.9-279.7,205.1-280.2z"/>
				<path class="st1" d="M207-284.6c-2.9-1.8-6.3-2.4-9.5-1.6s-6.1,2.8-7.9,5.6c-0.5,0.8-0.3,1.9,0.6,2.4c0.8,0.5,1.9,0.3,2.4-0.6
					c1.3-2.1,3.3-3.5,5.7-4.1c2.4-0.5,4.8-0.1,6.9,1.2c0.4,0.3,0.9,0.3,1.3,0.2c0.4-0.1,0.8-0.4,1.1-0.8
					C208.1-283,207.8-284.1,207-284.6z"/>
			</g>
			<g>
				<path class="st1" d="M392-373.7h-2.9l-0.9-3.5c-0.1-0.6-0.6-0.9-1.2-0.9h-28.1c-0.6,0-1.1,0.4-1.2,0.9l-0.9,3.5h-2.9
					c-2,0-3.7,1.6-3.7,3.7v20.5c0,2.3,1.9,4.1,4.1,4.1h37.1c2.3,0,4.1-1.9,4.1-4.1v-20.5C395.7-372.1,394-373.7,392-373.7z
					 M359.9-375.7h26.2l0.5,1.8h-27.1L359.9-375.7z M393.2-349.6c0,0.9-0.7,1.6-1.6,1.6h-37.1c-0.9,0-1.6-0.7-1.6-1.6v-17.5h40.4
					V-349.6z M393.2-369.6h-40.4v-0.5c0-0.6,0.5-1.1,1.1-1.1H392c0.6,0,1.1,0.5,1.1,1.1V-369.6z"/>
				<path class="st1" d="M390.1-359.2h-33.7c-0.7,0-1.3,0.6-1.3,1.3v7c0,0.7,0.6,1.3,1.3,1.3h33.7c0.7,0,1.3-0.6,1.3-1.3v-7
					C391.4-358.6,390.8-359.2,390.1-359.2z M388.8-352.1h-2c-0.1-0.6-0.6-1-1.2-1H361c-0.6,0-1.1,0.4-1.2,1h-2v-4.5h31.2V-352.1z"/>
				<path class="st1" d="M386.5-365h-1.1c-0.7,0-1.3,0.6-1.3,1.3s0.6,1.3,1.3,1.3h1.1c0.7,0,1.3-0.6,1.3-1.3S387.2-365,386.5-365z"
					/>
				<path class="st1" d="M390.7-365h-1.1c-0.7,0-1.3,0.6-1.3,1.3s0.6,1.3,1.3,1.3h1.1c0.7,0,1.3-0.6,1.3-1.3S391.3-365,390.7-365z"
					/>
				<path class="st1" d="M368-366.5h-11.6c-0.7,0-1.3,0.6-1.3,1.3v3.7c0,0.7,0.6,1.3,1.3,1.3H368c0.7,0,1.3-0.6,1.3-1.3v-3.7
					C369.2-365.9,368.7-366.5,368-366.5z M366.7-362.8h-9v-1.2h9V-362.8z"/>
				<path class="st1" d="M375.5-381.8c-1.4-1.4-3.7-1.4-5.1,0c-0.5,0.5-0.5,1.3,0,1.8c0.5,0.5,1.3,0.5,1.8,0c0.4-0.4,1.1-0.4,1.5,0
					c0.2,0.2,0.6,0.4,0.9,0.4c0.3,0,0.6-0.1,0.9-0.4C376-380.5,376-381.3,375.5-381.8z"/>
				<path class="st1" d="M377.3-384.7c-1.2-1.2-2.7-1.8-4.4-1.8c-1.6,0-3.2,0.6-4.4,1.8c-0.5,0.5-0.5,1.3,0,1.8
					c0.5,0.5,1.3,0.5,1.8,0c0.7-0.7,1.6-1.1,2.6-1.1c1,0,1.9,0.4,2.6,1.1c0.2,0.2,0.6,0.4,0.9,0.4c0.3,0,0.6-0.1,0.9-0.4
					C377.8-383.5,377.8-384.2,377.3-384.7z"/>
				<path class="st1" d="M379.4-387.5c-1.7-1.7-4-2.7-6.4-2.7c-2.4,0-4.7,0.9-6.4,2.7c-0.5,0.5-0.5,1.3,0,1.8c0.5,0.5,1.3,0.5,1.8,0
					c1.2-1.2,2.9-1.9,4.6-1.9s3.4,0.7,4.6,1.9c0.2,0.2,0.6,0.4,0.9,0.4c0.3,0,0.6-0.1,0.9-0.4C379.9-386.2,379.9-387,379.4-387.5z"
					/>
			</g>
			<g>
				<path class="st1" d="M404.6-315.4h-29.9v-2c0-1.5-1.2-2.7-2.7-2.7h-11.7c-1.5,0-2.7,1.2-2.7,2.7v2h-0.5c-3.1,0-5.6,2.5-5.6,5.6
					v28.1c0,3.1,2.5,5.6,5.6,5.6h3.7v0.1c0,1,0.8,1.8,1.8,1.8s1.8-0.8,1.8-1.8v-0.1h32.9v0.1c0,1,0.8,1.8,1.8,1.8
					c1,0,1.8-0.8,1.8-1.8v-0.1h3.7c3.1,0,5.6-2.5,5.6-5.6v-28.1C410.3-312.8,407.7-315.4,404.6-315.4z M361.2-316.5h9.9v1.1h-9.9
					V-316.5z M406.7-281.6c0,1.2-0.9,2.1-2.1,2.1h-47.4l0,0c-1.2,0-2.1-0.9-2.1-2.1v0c0,0,0,0,0,0L406.7-281.6L406.7-281.6z
					 M406.7-285.2h-51.5c0,0,0,0,0,0v-19.4c0,0,0,0,0,0h51.5V-285.2z M406.7-308.1h-51.5c0,0,0,0,0,0v-1.6c0-1.2,0.9-2.1,2.1-2.1
					h47.4c1.2,0,2.1,0.9,2.1,2.1V-308.1L406.7-308.1z"/>
				<path class="st1" d="M363.9-302.6h-2.4c-2,0-3.6,1.6-3.6,3.6v6.6c0,2,1.6,3.6,3.6,3.6h2.4c2,0,3.6-1.6,3.6-3.6v-6.6
					C367.5-301,365.9-302.6,363.9-302.6z M364-292.4C364-292.4,364-292.3,364-292.4l-2.5,0.1c0,0-0.1,0-0.1-0.1v-6.6h0
					c0,0,0-0.1,0.1-0.1h2.4c0,0,0.1,0,0.1,0.1C364-299,364-292.4,364-292.4z"/>
				<path class="st1" d="M374.4-297.5h-1.7v-1.6h4.3c1,0,1.8-0.8,1.8-1.8c0-1-0.8-1.8-1.8-1.8h-6.1c-1,0-1.8,0.8-1.8,1.8v5.1
					c0,1,0.8,1.8,1.8,1.8h3.5c0.4,0,0.8,0.4,0.8,0.8c0,0.4-0.4,0.8-0.8,0.8h-3.5c-1,0-1.8,0.8-1.8,1.8c0,1,0.8,1.8,1.8,1.8h3.5
					c2.4,0,4.3-1.9,4.3-4.3S376.8-297.5,374.4-297.5z"/>
				<path class="st1" d="M389.9-302.6h-2.4c-2,0-3.6,1.6-3.6,3.6v6.6c0,2,1.6,3.6,3.6,3.6h2.4c2,0,3.6-1.6,3.6-3.6v-6.6
					C393.5-301,391.9-302.6,389.9-302.6z M390-292.4C390-292.4,389.9-292.3,390-292.4l-2.5,0.1c0,0-0.1,0-0.1-0.1v-6.6
					c0,0,0-0.1,0.1-0.1h2.4c0,0,0.1,0,0.1,0.1V-292.4z"/>
				<path class="st1" d="M400.4-302.6H398c-2,0-3.6,1.6-3.6,3.6v6.6c0,2,1.6,3.6,3.6,3.6h2.4c2,0,3.6-1.6,3.6-3.6v-6.6
					C404-301,402.3-302.6,400.4-302.6z M400.4-292.4C400.4-292.4,400.4-292.3,400.4-292.4l-2.5,0.1c0,0-0.1,0-0.1-0.1v-6.6
					c0,0,0-0.1,0.1-0.1h2.4c0,0,0.1,0,0.1,0.1V-292.4z"/>
				<path class="st1" d="M381.1-301.5c-1,0-1.8,0.8-1.8,1.8v1.7c0,1,0.8,1.8,1.8,1.8c1,0,1.8-0.8,1.8-1.8v-1.7
					C382.9-300.7,382.1-301.5,381.1-301.5z"/>
				<path class="st1" d="M381.1-295.1c-1,0-1.8,0.8-1.8,1.8v1.7c0,1,0.8,1.8,1.8,1.8c1,0,1.8-0.8,1.8-1.8v-1.7
					C382.9-294.3,382.1-295.1,381.1-295.1z"/>
				<path class="st1" d="M394.6-322.3c-1-1-2.2-1.5-3.6-1.5s-2.6,0.5-3.6,1.5c-0.7,0.7-0.7,1.8,0,2.5s1.8,0.7,2.5,0
					c0.3-0.3,0.7-0.4,1.1-0.4s0.8,0.2,1.1,0.4c0.3,0.3,0.8,0.5,1.2,0.5c0.5,0,0.9-0.2,1.2-0.5C395.3-320.5,395.3-321.7,394.6-322.3z
					"/>
				<path class="st1" d="M397.2-326.4c-3.4-3.4-8.9-3.4-12.3,0c-0.7,0.7-0.7,1.8,0,2.5c0.7,0.7,1.8,0.7,2.5,0c2-2,5.3-2,7.3,0
					c0.3,0.3,0.8,0.5,1.2,0.5c0.5,0,0.9-0.2,1.2-0.5C397.9-324.6,397.9-325.8,397.2-326.4z"/>
				<path class="st1" d="M400.1-330.3c-5-5-13.1-5-18,0c-0.7,0.7-0.7,1.8,0,2.5s1.8,0.7,2.5,0c3.6-3.6,9.4-3.6,13,0
					c0.3,0.3,0.8,0.5,1.2,0.5c0.5,0,0.9-0.2,1.2-0.5C400.8-328.5,400.8-329.6,400.1-330.3z"/>
			</g>
			<g>
				<path class="st1" d="M382.1-180.2c-0.9-0.9-2.1-1.4-3.3-1.4c-1.3,0-2.5,0.5-3.3,1.4c-0.6,0.6-0.6,1.7,0,2.3s1.7,0.6,2.3,0
					c0.3-0.3,0.6-0.4,1-0.4s0.7,0.1,1,0.4c0.3,0.3,0.7,0.5,1.2,0.5c0.4,0,0.8-0.2,1.2-0.5C382.8-178.5,382.8-179.5,382.1-180.2z"/>
				<path class="st1" d="M384.5-184c-3.2-3.2-8.3-3.2-11.5,0c-0.6,0.6-0.6,1.7,0,2.3c0.6,0.6,1.7,0.6,2.3,0c1.9-1.9,4.9-1.9,6.8,0
					c0.3,0.3,0.7,0.5,1.2,0.5c0.4,0,0.8-0.2,1.2-0.5C385.2-182.3,385.2-183.4,384.5-184z"/>
				<path class="st1" d="M387.2-187.6c-4.7-4.7-12.2-4.7-16.9,0c-0.6,0.6-0.6,1.7,0,2.3c0.6,0.6,1.7,0.6,2.3,0
					c3.4-3.4,8.8-3.4,12.2,0c0.3,0.3,0.7,0.5,1.2,0.5c0.4,0,0.8-0.2,1.2-0.5C387.9-185.9,387.9-187,387.2-187.6z"/>
				<path class="st1" d="M396.1-171c-0.2,0-0.3,0-0.5,0.1c-0.6-2.7-3-4.7-5.9-4.7c-1.7,0-3.3,0.7-4.4,1.9c-1.1-1.2-2.7-1.9-4.4-1.9
					c-1.7,0-3.3,0.7-4.4,1.9c-1.1-1.2-2.7-1.9-4.4-1.9c-1.7,0-3.3,0.7-4.4,1.9c-1.1-1.2-2.7-1.9-4.4-1.9c-3.3,0-6.1,2.7-6.1,6.1
					v31.8h-5.4c-0.9,0-1.7,0.7-1.7,1.7c0,0.9,0.7,1.7,1.7,1.7h6.2c1,1.9,3,3.2,5.3,3.2c1.7,0,3.3-0.7,4.4-1.9
					c1.1,1.2,2.7,1.9,4.4,1.9c1.7,0,3.3-0.7,4.4-1.9c1.1,1.2,2.7,1.9,4.4,1.9c1.7,0,3.3-0.7,4.4-1.9c1.1,1.2,2.7,1.9,4.4,1.9
					c3.3,0,6.1-2.7,6.1-6.1v-26.2c0.1,0,0.2,0,0.3,0c0.9,0,1.7-0.7,1.7-1.7v-4.2C397.8-170.2,397-171,396.1-171z M366-137.3
					c0,1.5-1.2,2.7-2.7,2.7s-2.7-1.2-2.7-2.7v-32.3c0-1.5,1.2-2.7,2.7-2.7c1.5,0,2.7,1.2,2.7,2.7V-137.3z M374.8-137.3
					c0,1.5-1.2,2.7-2.7,2.7s-2.7-1.2-2.7-2.7v-32.3c0-1.5,1.2-2.7,2.7-2.7s2.7,1.2,2.7,2.7V-137.3z M383.6-137.3
					c0,1.5-1.2,2.7-2.7,2.7c-1.5,0-2.7-1.2-2.7-2.7v-32.3c0-1.5,1.2-2.7,2.7-2.7s2.7,1.2,2.7,2.7V-137.3z M392.5-137.3
					c0,1.5-1.2,2.7-2.7,2.7c-1.5,0-2.7-1.2-2.7-2.7v-32.3c0-1.5,1.2-2.7,2.7-2.7s2.7,1.2,2.7,2.7V-137.3z"/>
			</g>
			<path class="st1" d="M325.7-338.7h-23.5c-2.5,0-4.5,2-4.5,4.5v50.9c0,2.5,2,4.5,4.5,4.5h23.5c2.5,0,4.5-2,4.5-4.5v-50.9
				C330.2-336.7,328.2-338.7,325.7-338.7z M326.8-283.3c0,0.6-0.5,1.2-1.2,1.2h-23.5c-0.6,0-1.2-0.5-1.2-1.2v-0.3h25.8L326.8-283.3
				L326.8-283.3z M326.8-287H301v-27.9h25.8L326.8-287L326.8-287z M326.8-318.2H301v-16c0-0.6,0.5-1.2,1.2-1.2h23.5
				c0.6,0,1.2,0.5,1.2,1.2V-318.2L326.8-318.2z"/>
			<g>
				<path class="st1" d="M325.5-219.5C325.5-219.5,325.5-219.5,325.5-219.5l-0.2,0l0-0.2c0-1-0.8-1.7-1.7-1.7c0,0,0,0,0,0
					c-1,0-1.7,0.8-1.7,1.7l0,0.2l-0.2,0c-1,0-1.7,0.8-1.7,1.7c0,1,0.8,1.7,1.7,1.7c0,0,0,0,0,0l0.2,0l0,0.2c0,1,0.8,1.7,1.7,1.7
					c0,0,0,0,0,0c1,0,1.7-0.8,1.7-1.7l0-0.2l0.2,0c1,0,1.7-0.8,1.7-1.7C327.2-218.8,326.4-219.5,325.5-219.5z"/>
				<path class="st1" d="M373.4-239.8c-0.5-0.7-1.3-0.9-2.1-0.6v-1.8c0-5.7-4.6-10.3-10.3-10.3h-36.9c-5.7,0-10.3,4.6-10.3,10.3
					v33.5c0,1.9,1.6,3.5,3.5,3.5h50.5c1.9,0,3.5-1.6,3.5-3.5v-27.6l1.7-1.2C373.8-237.9,374-239,373.4-239.8z M367.9-208.6
					C367.9-208.6,367.9-208.5,367.9-208.6l-50.5,0.1c0,0-0.1,0-0.1-0.1v-16.7h33.2l-1.7,1.3h-14.1c-1,0-1.7,0.8-1.7,1.7v10.8
					c0,1,0.8,1.7,1.7,1.7h16c1,0,1.7-0.8,1.7-1.7v-10.8c0,0,0,0,0,0l4.1-2.9h11.5V-208.6z M342.8-217.6c0.3,0.5,0.9,0.7,1.4,0.7
					c0.4,0,0.7-0.1,1-0.3l3.7-2.7v6.6h-12.5v-7.4h7.7l-0.8,0.6C342.4-219.4,342.3-218.4,342.8-217.6z M367.9-228.8h-6.8l6.8-4.9
					V-228.8z M367.9-237.9l-12.6,9.2h-37.9v-13.4c0-3.8,3.1-6.9,6.9-6.9h36.9c3.8,0,6.9,3.1,6.9,6.9V-237.9z"/>
				<path class="st1" d="M360.3-218.5c0-1-0.8-1.7-1.7-1.7c0,0,0,0,0,0c-1,0-1.7,0.8-1.7,1.7l0,1.4c0,1,0.8,1.7,1.7,1.7c0,0,0,0,0,0
					c1,0,1.7-0.8,1.7-1.7L360.3-218.5z"/>
				<path class="st1" d="M323.5-245.6c-2.5,0-4.6,2-4.6,4.6c0,2.5,2,4.6,4.6,4.6c2.5,0,4.6-2,4.6-4.6
					C328.1-243.5,326-245.6,323.5-245.6z M323.5-239.9c-0.6,0-1.1-0.5-1.1-1.1s0.5-1.1,1.1-1.1c0.6,0,1.1,0.5,1.1,1.1
					S324.1-239.9,323.5-239.9z"/>
				<path class="st1" d="M353.3-246.7H332c-1,0-1.7,0.8-1.7,1.7v11.8c0,1,0.8,1.7,1.7,1.7h21.4c1,0,1.7-0.8,1.7-1.7V-245
					C355-245.9,354.3-246.7,353.3-246.7z M351.6-234.9h-17.9v-8.4h17.9V-234.9z"/>
				<circle class="st1" cx="361" cy="-244.1" r="1.7"/>
				<circle class="st1" cx="361" cy="-238.8" r="1.7"/>
				<circle class="st1" cx="363.6" cy="-241.5" r="1.7"/>
				<circle class="st1" cx="358.3" cy="-241.5" r="1.7"/>
			</g>
			<g>
				<path class="st1" d="M447.2-242.5c0.9,0,1.7-0.7,1.7-1.7v-5.5c0-0.9-0.7-1.7-1.7-1.7h-56.7c-0.9,0-1.7,0.7-1.7,1.7v5.5
					c0,0.9,0.7,1.7,1.7,1.7h0.3v0.9h-0.3c-0.9,0-1.7,0.7-1.7,1.7v12.7c0,0.9,0.7,1.7,1.7,1.7h6.3c-0.3,0.7-0.6,1.4-0.8,2.1
					l-3.8,17.4c-0.3,1.4-0.1,2.8,0.7,4c0.8,1.2,1.9,2,3.3,2.3c2.5,0.6,5.2,0.1,7.4-1.3c2.2-1.4,3.7-3.6,4.3-6.1l0.3-1.3
					c0.8,0.5,1.8,0.7,2.8,0.7c2.3,0,4.2-1.3,5.2-3.3h5.5c0.9,1.9,2.9,3.1,5.1,3.1c1,0,2-0.3,2.8-0.7l0.3,1.4
					c0.6,2.5,2.1,4.7,4.3,6.1c1.6,1,3.4,1.5,5.2,1.5c0.7,0,1.4-0.1,2.1-0.2c1.4-0.3,2.6-1.1,3.3-2.3c0.8-1.2,1-2.6,0.7-4l-3.8-17.4
					c-0.2-0.8-0.4-1.5-0.8-2.1h6.3c0.9,0,1.7-0.7,1.7-1.7v-12.7c0-0.9-0.7-1.7-1.7-1.7h-0.3v-0.9L447.2-242.5L447.2-242.5z
					 M392.2-248h53.4v2.2h-53.4V-248z M443.6-241.6h-49.4v-0.9h49.4V-241.6L443.6-241.6z M411-211.1c-1.3,0-2.4-1.1-2.4-2.4
					c0-1.3,1.1-2.4,2.4-2.4c1.3,0,2.4,1.1,2.4,2.4C413.4-212.2,412.3-211.1,411-211.1z M426.8-211.2c-1.3,0-2.4-1.1-2.4-2.4
					c0-1.3,1.1-2.4,2.4-2.4s2.4,1.1,2.4,2.4C429.2-212.3,428.1-211.2,426.8-211.2z M442.3-205.3c0.1,0.5,0,1-0.3,1.5
					c-0.3,0.4-0.7,0.7-1.2,0.9c-1.7,0.4-3.4,0.1-4.9-0.9c-1.4-0.9-2.5-2.4-2.8-4l-0.9-4c0.2-0.5,0.3-1.1,0.3-1.7
					c0-3.2-2.6-5.7-5.7-5.7c-2.9,0-5.3,2.2-5.7,5h-4.5c-0.4-2.7-2.8-4.8-5.6-4.8c-3.2,0-5.7,2.6-5.7,5.7c0,0.6,0.1,1.1,0.2,1.6
					l-0.9,4c-0.4,1.7-1.4,3.1-2.8,4c-1.4,0.9-3.2,1.2-4.9,0.9c-0.5-0.1-1-0.4-1.2-0.9c-0.3-0.4-0.4-1-0.3-1.5l3.8-17.4
					c0.3-1.5,1.3-2.9,2.6-3.7c1.3-0.8,2.9-1.1,4.4-0.8l4.1,0.9c0.1,0,0.2,0,0.4,0h0.3v3.3c0,1.4,1.2,2.6,2.6,2.6h10.5
					c1.4,0,2.6-1.2,2.6-2.6v-3.3h0.3c0.1,0,0.2,0,0.4,0l4.1-0.9c1.5-0.3,3.1-0.1,4.4,0.8c1.3,0.8,2.2,2.2,2.6,3.7L442.3-205.3z
					 M414.3-223.7v-3.3h9.1v3.3H414.3z M438.1-228.9c-0.2-0.1-0.3-0.2-0.5-0.3c-0.4-0.2-0.8-0.5-1.2-0.7c0-0.1,0-0.2,0-0.2
					c0-0.9-0.7-1.7-1.7-1.7h-3.3c-0.9,0-1.6,0.7-1.7,1.5l-3,0.7h-0.9c-0.5-0.5-1.1-0.7-1.8-0.7h-10.5c-0.7,0-1.4,0.3-1.8,0.7h-0.9
					l-3-0.7c-0.1-0.9-0.8-1.5-1.7-1.5h-3.3c-0.9,0-1.7,0.7-1.7,1.7c0,0.1,0,0.2,0,0.2c-0.4,0.2-0.8,0.4-1.2,0.7
					c-0.2,0.1-0.3,0.2-0.5,0.3h-7.4v-9.4h53.4v9.4H438.1z"/>
				<path class="st1" d="M399.2-235.8h-3.3c-0.9,0-1.7,0.7-1.7,1.7c0,0.9,0.7,1.7,1.7,1.7h3.3c0.9,0,1.7-0.7,1.7-1.7
					C400.8-235.1,400.1-235.8,399.2-235.8z"/>
				<path class="st1" d="M406-222.1h-0.2v-0.2c0-0.9-0.7-1.7-1.7-1.7c-0.9,0-1.7,0.7-1.7,1.7v0.2h-0.2c-0.9,0-1.7,0.7-1.7,1.7
					s0.7,1.7,1.7,1.7h0.2v0.2c0,0.9,0.7,1.7,1.7,1.7c0.9,0,1.7-0.7,1.7-1.7v-0.2h0.2c0.9,0,1.7-0.7,1.7-1.7
					C407.7-221.3,407-222.1,406-222.1z"/>
				<circle class="st1" cx="434.3" cy="-222.2" r="1.6"/>
				<circle class="st1" cx="434.3" cy="-217.1" r="1.6"/>
				<circle class="st1" cx="436.9" cy="-219.6" r="1.6"/>
				<circle class="st1" cx="431.8" cy="-219.6" r="1.6"/>
				<circle class="st1" cx="418.9" cy="-216.7" r="1.6"/>
			</g>
			<g>
				<path class="st1" d="M412.6-108.9c-0.9,0-1.7,0.7-1.7,1.7v52.4c0,1.3-1.1,2.4-2.4,2.4c-1.3,0-2.4-1.1-2.4-2.4v-42.3
					c0-4.1-3.3-7.4-7.4-7.4h-6c-4.1,0-7.4,3.3-7.4,7.4v3.9H385c-1.4,0-2.5,1.1-2.5,2.5v2.4c0,0.7-0.2,1.4-0.7,1.9l-4,5.1
					c-0.2,0.3-0.4,0.7-0.4,1v21.3c0,0.8,0.6,1.5,1.3,1.6v6.6c0,0.9,0.7,1.7,1.7,1.7h13c0.9,0,1.7-0.7,1.7-1.7v-6.6
					c0.8-0.1,1.3-0.8,1.3-1.6v-21.3c0-0.4-0.1-0.7-0.4-1l-4-5.1c-0.4-0.5-0.7-1.2-0.7-1.9v-2.4c0-1.4-1.1-2.5-2.5-2.5h-0.3v-3.9
					c0-2.3,1.9-4.1,4.1-4.1h6c2.3,0,4.1,1.9,4.1,4.1v42.3c0,3.2,2.6,5.7,5.7,5.7s5.7-2.6,5.7-5.7v-52.4
					C414.3-108.1,413.5-108.9,412.6-108.9z M385.8-89.9h2.3v0.7h-2.3V-89.9z M391.7-52.3H382v-4.9h9.7V-52.3z M389.4-84.3l3.7,4.7
					v19.1h0h-12.4v-19.1l3.7-4.7c0.4-0.5,0.7-1.1,0.9-1.7h3.2C388.7-85.3,389-84.8,389.4-84.3z"/>
				<path class="st1" d="M385-55.9h-0.6c-0.9,0-1.7,0.7-1.7,1.7c0,0.9,0.7,1.7,1.7,1.7h0.6c0.9,0,1.7-0.7,1.7-1.7
					C386.7-55.2,385.9-55.9,385-55.9z"/>
				<path class="st1" d="M389.3-55.9h-0.6c-0.9,0-1.7,0.7-1.7,1.7c0,0.9,0.7,1.7,1.7,1.7h0.6c0.9,0,1.7-0.7,1.7-1.7
					C391-55.2,390.3-55.9,389.3-55.9z"/>
			</g>
			<path class="st1" d="M360-88.9h-3.5v-26.3c0-0.9-0.8-1.7-1.7-1.7s-1.7,0.8-1.7,1.7v26.3h-2.5v-26.3c0-0.9-0.8-1.7-1.7-1.7
				c-0.9,0-1.7,0.8-1.7,1.7v26.3h-3.5c-3.1,0-5.5,2.5-5.5,5.5v24.6c0,0.9,0.8,1.7,1.7,1.7h24c0.9,0,1.7-0.8,1.7-1.7v-24.6
				C365.5-86.4,363.1-88.9,360-88.9z M357.3-60.4h-10.9v-0.9h10.9V-60.4z M362.1-60.4L362.1-60.4h-1.5V-63c0-0.8-0.5-1.5-1.3-1.6
				v-2.9c0-0.9-0.8-1.7-1.7-1.7c-0.9,0-1.7,0.8-1.7,1.7v2.8h-0.5v-2.8c0-0.9-0.8-1.7-1.7-1.7s-1.7,0.8-1.7,1.7v2.8h-0.5v-2.8
				c0-0.9-0.8-1.7-1.7-1.7c-0.9,0-1.7,0.8-1.7,1.7v2.8h-0.5v-2.8c0-0.9-0.8-1.7-1.7-1.7c-0.9,0-1.7,0.8-1.7,1.7v2.9
				c-0.7,0.2-1.3,0.9-1.3,1.6v2.6h-1.5v-22.9c0-1.2,1-2.1,2.1-2.1H360c1.2,0,2.1,1,2.1,2.1V-60.4L362.1-60.4z"/>
			<g>
				<path class="st1" d="M473.8-95.8h-3v-2.7c0-0.9-0.7-1.7-1.7-1.7h-1.7v-2.1c0-0.9-0.7-1.7-1.7-1.7h-13.7c-0.9,0-1.7,0.7-1.7,1.7
					v2.1h-1.7c-0.9,0-1.7,0.7-1.7,1.7v2.7h-3c-0.9,0-1.7,0.7-1.7,1.7v21c0,0.9,0.7,1.7,1.7,1.7h29.8c0.9,0,1.7-0.7,1.7-1.7v-21
					C475.5-95.1,474.7-95.8,473.8-95.8z M472.2-74.8h-26.4v-17.7h3c0.9,0,1.7-0.7,1.7-1.7v-2.7h1.7c0.9,0,1.7-0.7,1.7-1.7v-2.1h10.4
					v2.1c0,0.9,0.7,1.7,1.7,1.7h1.7v2.7c0,0.9,0.7,1.7,1.7,1.7h3V-74.8L472.2-74.8z"/>
				<path class="st1" d="M467.7-89.4h-17.5c-0.9,0-1.7,0.7-1.7,1.7v9c0,0.9,0.7,1.7,1.7,1.7h17.5c0.9,0,1.7-0.7,1.7-1.7v-9
					C469.3-88.6,468.6-89.4,467.7-89.4z M466-80.4h-14.2v-5.1c0,0,14.2,0,14.2,0V-80.4z"/>
				<path class="st1" d="M487.2-113.6h-56.6c-0.9,0-1.7,0.7-1.7,1.7v48c0,0.9,0.7,1.7,1.7,1.7h56.6c0.9,0,1.7-0.7,1.7-1.7v-48
					C488.9-112.9,488.1-113.6,487.2-113.6z M432.3-65.6v-44.7h53.3v44.7H432.3z"/>
				<circle class="st1" cx="435.5" cy="-106.6" r="1.6"/>
				<circle class="st1" cx="482.4" cy="-106.6" r="1.6"/>
				<circle class="st1" cx="435.5" cy="-69.3" r="1.6"/>
				<circle class="st1" cx="482.4" cy="-69.3" r="1.6"/>
			</g>
			<g>
				<path class="st1" d="M65.4-217.4c0-11.9-9.6-21.5-21.5-21.5s-21.5,9.6-21.5,21.5c0,9.5,6.2,17.6,14.8,20.4v5.9h-0.7
					c-3.4,0-6.1,2.7-6.1,6.1v4.4c0,0.9,0.7,1.7,1.7,1.7h23.5c0.9,0,1.7-0.7,1.7-1.7v-4.4c0-3.4-2.7-6.1-6.1-6.1h-0.7v-5.9
					C59.2-199.8,65.4-207.9,65.4-217.4z M51.3-187.8c1.5,0,2.8,1.2,2.8,2.8v2.7H33.9v-2.7c0-1.5,1.2-2.8,2.8-2.8H51.3z M40.6-191.1
					v-5.1c1.1,0.2,2.2,0.3,3.4,0.3s2.3-0.1,3.4-0.3v5.1h0H40.6z M43.9-199.2c-10,0-18.2-8.2-18.2-18.2s8.2-18.2,18.2-18.2
					s18.2,8.2,18.2,18.2S54-199.2,43.9-199.2z"/>
				<path class="st1" d="M43.9-227.8c-5.7,0-10.4,4.7-10.4,10.4c0,5.7,4.7,10.4,10.4,10.4s10.4-4.7,10.4-10.4
					C54.4-223.1,49.7-227.8,43.9-227.8z M43.9-210.3c-3.9,0-7.1-3.2-7.1-7.1c0-3.9,3.2-7.1,7.1-7.1s7.1,3.2,7.1,7.1
					S47.9-210.3,43.9-210.3z"/>
				<circle class="st1" cx="43.9" cy="-217.4" r="3.2"/>
			</g>
			<g>
				<circle class="st1" cx="36.2" cy="-384.4" r="2.6"/>
				<circle class="st1" cx="26.3" cy="-384.4" r="2.6"/>
				<path class="st1" d="M31.3-399.5c-8.3,0-15.1,6.8-15.1,15.1s6.8,15.1,15.1,15.1s15.1-6.8,15.1-15.1S39.6-399.5,31.3-399.5z
					 M31.3-372.7c-6.5,0-11.7-5.2-11.7-11.7s5.2-11.7,11.7-11.7S43-390.8,43-384.4S37.8-372.7,31.3-372.7z"/>
				<path class="st1" d="M61.9-387.3H60v-20.9c0-0.9-0.8-1.7-1.7-1.7c-0.9,0-1.7,0.8-1.7,1.7v20.9h-2.1V-399c0-3.6-3-6.6-6.6-6.6
					H14.7c-3.6,0-6.6,3-6.6,6.6v42.3c0,3.6,3,6.6,6.6,6.6h33.3c3.6,0,6.6-3,6.6-6.6v-12.9H56c4.2,0,7.6-3.4,7.6-7.6v-8.5
					C63.6-386.6,62.8-387.3,61.9-387.3z M47.9-353.4H14.7c-1.8,0-3.2-1.4-3.2-3.2V-399c0-1.8,1.4-3.2,3.2-3.2h33.3
					c1.8,0,3.2,1.4,3.2,3.2v42.3h0C51.2-354.8,49.7-353.4,47.9-353.4z M60.2-377.1c0,2.3-1.9,4.2-4.2,4.2h-1.5v-11h5.7V-377.1z"/>
				<path class="st1" d="M45.8-364.9h-4.1c-1,0-1.8,0.8-1.8,1.8c0,1,0.8,1.8,1.8,1.8h4.1c1,0,1.8-0.8,1.8-1.8
					C47.5-364.1,46.7-364.9,45.8-364.9z"/>
				<path class="st1" d="M45.8-359.3h-4.1c-1,0-1.8,0.8-1.8,1.8c0,1,0.8,1.8,1.8,1.8h4.1c1,0,1.8-0.8,1.8-1.8
					C47.5-358.5,46.7-359.3,45.8-359.3z"/>
			</g>
			<g>
				<path class="st1" d="M492.9-290h-1.8c-0.9,0-1.7,0.7-1.7,1.7c0,0.9,0.7,1.7,1.7,1.7h1.8c0.9,0,1.7-0.7,1.7-1.7
					C494.6-289.2,493.8-290,492.9-290z"/>
				<path class="st1" d="M499.4-290h-1.8c-0.9,0-1.7,0.7-1.7,1.7c0,0.9,0.7,1.7,1.7,1.7h1.8c0.9,0,1.7-0.7,1.7-1.7
					C501.1-289.2,500.3-290,499.4-290z"/>
				<path class="st1" d="M515-323h-1.5v-16.2c0-0.9-0.7-1.7-1.7-1.7s-1.7,0.7-1.7,1.7v16.2h-0.7c-0.5-2.2-2.4-3.8-4.7-3.8h-1.5
					h-15.9h-1.5c-2.7,0-4.8,2.2-4.8,4.8v22.7c0,1.9,1.1,3.5,2.6,4.3c0.1,0.8,0.8,1.4,1.6,1.4h0.5v11c0,0.9,0.7,1.7,1.7,1.7h15.9
					c0.9,0,1.7-0.7,1.7-1.7v-11h0.5c0.8,0,1.5-0.6,1.6-1.4c1.5-0.8,2.6-2.4,2.6-4.3v-6c4-0.2,7.1-3.5,7.1-7.5v-8.5
					C516.7-322.2,515.9-323,515-323z M501.5-284.3H489v-9.4h12.5V-284.3z M506.2-299.3c0,0.8-0.7,1.5-1.5,1.5h-18.9
					c-0.8,0-1.5-0.7-1.5-1.5V-322c0-0.8,0.7-1.5,1.5-1.5h3.2h12.5h3.2c0.8,0,1.5,0.7,1.5,1.5V-299.3z M513.4-312.8
					c0,2.2-1.7,4-3.8,4.2v-11h3.8V-312.8z"/>
				<path class="st1" d="M498.6-306c-0.9-0.9-2.1-1.4-3.4-1.4c-1.3,0-2.5,0.5-3.4,1.4c-0.6,0.6-0.6,1.7,0,2.3c0.6,0.6,1.7,0.6,2.3,0
					c0.3-0.3,0.6-0.4,1-0.4c0.4,0,0.8,0.2,1,0.4c0.3,0.3,0.7,0.5,1.2,0.5c0.4,0,0.8-0.2,1.2-0.5C499.3-304.3,499.3-305.3,498.6-306z
					"/>
				<path class="st1" d="M501.1-309.9c-3.2-3.2-8.5-3.2-11.7,0c-0.6,0.6-0.6,1.7,0,2.3c0.6,0.6,1.7,0.6,2.3,0c1.9-1.9,5.1-1.9,7,0
					c0.3,0.3,0.7,0.5,1.2,0.5s0.8-0.2,1.2-0.5C501.8-308.2,501.8-309.3,501.1-309.9z"/>
				<path class="st1" d="M503.9-313.6c-4.7-4.7-12.5-4.7-17.2,0c-0.6,0.6-0.6,1.7,0,2.3c0.6,0.6,1.7,0.6,2.3,0
					c3.4-3.4,9.1-3.4,12.5,0c0.3,0.3,0.7,0.5,1.2,0.5c0.4,0,0.8-0.2,1.2-0.5C504.5-311.9,504.5-312.9,503.9-313.6z"/>
			</g>
			<g>
				<path class="st1" d="M55.1-166.8H4.7c-2.6,0-4.7,2.1-4.7,4.7v33.2c0,2.6,2.1,4.7,4.7,4.7h19v3.1c-2.8,0.5-5.5,1.4-8.2,2.6
					c-0.8,0.4-1.2,1.4-0.8,2.2c0.4,0.8,1.4,1.2,2.2,0.8c8.3-3.8,17.8-3.8,26.1,0c0.2,0.1,0.5,0.2,0.7,0.2c0.6,0,1.2-0.4,1.5-1
					c0.4-0.8,0-1.8-0.8-2.2c-2.6-1.2-5.4-2.1-8.2-2.6v-3.1h19c2.6,0,4.7-2.1,4.7-4.7v-33.2C59.9-164.7,57.8-166.8,55.1-166.8z
					 M32.9-121.5c-2-0.2-3.9-0.2-5.9,0v-2.7h5.9V-121.5z M56.6-128.9c0,0.8-0.6,1.4-1.4,1.4H4.7c-0.8,0-1.4-0.6-1.4-1.4v-33.2
					c0-0.8,0.6-1.4,1.4-1.4h50.4c0.8,0,1.4,0.6,1.4,1.4L56.6-128.9L56.6-128.9z"/>
				<path class="st1" d="M52.8-161.4H7.1c-0.9,0-1.7,0.7-1.7,1.7v28.5c0,0.9,0.7,1.7,1.7,1.7h45.7c0.9,0,1.7-0.7,1.7-1.7v-28.5
					C54.4-160.7,53.7-161.4,52.8-161.4z M51.1-132.9H8.8v-25.2h42.4V-132.9z"/>
				<path class="st1" d="M36.5-154H17.6c-0.9,0-1.7,0.7-1.7,1.7v10.1c0,0.9,0.7,1.7,1.7,1.7h18.9c0.9,0,1.7-0.7,1.7-1.7v-10.1
					C38.1-153.3,37.4-154,36.5-154z M34.8-143.9H19.2v-6.7h15.6V-143.9z"/>
				<path class="st1" d="M46-154h-4.5c-0.9,0-1.7,0.7-1.7,1.7v10.1c0,0.9,0.7,1.7,1.7,1.7H46c0.9,0,1.7-0.7,1.7-1.7v-10.1
					C47.6-153.3,46.9-154,46-154z M44.3-143.9h-1.2v-6.7h1.2V-143.9z"/>
				<path class="st1" d="M46-139.3H17.6c-0.9,0-1.7,0.7-1.7,1.7c0,0.9,0.7,1.7,1.7,1.7H46c0.9,0,1.7-0.7,1.7-1.7
					S46.9-139.3,46-139.3z"/>
			</g>
			<g>
				<path class="st1" d="M246.1-64.3v-2.4c0-4.1-3.3-7.4-7.4-7.4H219c-4.1,0-7.4,3.3-7.4,7.4v2.4c-0.6,0.2-1.1,0.9-1.1,1.6
					c0,0.7,0.4,1.3,1.1,1.6v28.5c0,0.9,0.8,1.7,1.7,1.7h31.2c0.9,0,1.7-0.8,1.7-1.7v-28.5c0.6-0.2,1.1-0.9,1.1-1.6
					S246.8-64.1,246.1-64.3z M242.7-34.4h-3.3v-1.1c0-0.9-0.8-1.7-1.7-1.7h-17.8c-0.9,0-1.7,0.8-1.7,1.7v1.1h-3.3V-61h27.8V-34.4z
					 M242.7-64.4h-27.8v-2.3c0-2.2,1.8-4.1,4.1-4.1h19.7c2.2,0,4.1,1.8,4.1,4.1V-64.4z"/>
				<path class="st1" d="M232.2-79.7c-0.9-0.9-2.1-1.4-3.4-1.4c-1.3,0-2.5,0.5-3.4,1.4c-0.7,0.7-0.7,1.7,0,2.4
					c0.7,0.7,1.7,0.7,2.4,0c0.3-0.3,0.6-0.4,1-0.4s0.7,0.1,1,0.4c0.3,0.3,0.8,0.5,1.2,0.5c0.4,0,0.9-0.2,1.2-0.5
					C232.9-78,232.9-79.1,232.2-79.7z"/>
				<path class="st1" d="M234.7-83.6c-1.6-1.6-3.6-2.4-5.9-2.4c-2.2,0-4.3,0.9-5.9,2.4c-0.7,0.7-0.7,1.7,0,2.4
					c0.7,0.7,1.7,0.7,2.4,0c0.9-0.9,2.2-1.4,3.5-1.4c1.3,0,2.5,0.5,3.5,1.4c0.3,0.3,0.8,0.5,1.2,0.5c0.4,0,0.9-0.2,1.2-0.5
					C235.3-81.9,235.3-83,234.7-83.6z"/>
				<path class="st1" d="M237.4-87.3c-2.3-2.3-5.4-3.6-8.6-3.6c-3.3,0-6.3,1.3-8.6,3.6c-0.7,0.7-0.7,1.7,0,2.4
					c0.7,0.7,1.7,0.7,2.4,0c1.7-1.7,3.9-2.6,6.2-2.6c2.3,0,4.6,0.9,6.2,2.6c0.3,0.3,0.8,0.5,1.2,0.5c0.4,0,0.9-0.2,1.2-0.5
					C238.1-85.6,238.1-86.7,237.4-87.3z"/>
			</g>
			<g>
				<path class="st1" d="M316-111.8h-5.2c-0.7,0-1.3-0.6-1.3-1.3c0-0.7,0.6-1.3,1.3-1.3h1.6c2.3,0,4.2-1.9,4.2-4.2s-1.9-4.2-4.2-4.2
					h-20.3c-2.3,0-4.2,1.9-4.2,4.2c0,0.5-0.4,0.9-0.9,0.9h-3.9c-3,0-5.5,2.5-5.5,5.5c0,3,2.5,5.5,5.5,5.5c3.9,0,7.6,1.8,10,4.8
					l1.8,2.2c-0.3,0.2-0.6,0.4-0.9,0.7c-2.2,1.9-3.7,4.6-4.2,7.5l-2.1,14.1c-0.5,3.6,0.5,7.3,2.9,10c2.4,2.8,5.8,4.4,9.5,4.4h3.9
					c3.7,0,7.1-1.6,9.5-4.4c2.4-2.8,3.4-6.4,2.9-10l-2.1-14.1c-0.4-2.8-1.8-5.4-3.9-7.3l7.9-4.5c1.4-0.8,2.3-2.3,2.3-3.9
					C320.6-109.8,318.5-111.8,316-111.8z M311.1-91l2.1,14.1c0.4,2.7-0.4,5.3-2.1,7.4c-1.8,2-4.3,3.2-7,3.2h-3.9
					c-2.7,0-5.2-1.2-7-3.2c-1.8-2-2.5-4.7-2.1-7.4l2.1-14.1c0.7-4.4,4.4-7.7,8.9-7.7C306.7-98.7,310.4-95.5,311.1-91z M316.6-106.2
					l-9.3,5.3c-1.6-0.7-3.4-1.1-5.1-1.1c-1.4,0-2.8,0.3-4.2,0.7l-2.2-2.7c-3.1-3.8-7.7-6.1-12.6-6.1c-1.2,0-2.2-1-2.2-2.2
					c0-1.2,1-2.2,2.2-2.2h3.9c2.3,0,4.2-1.9,4.2-4.2c0-0.5,0.4-0.9,0.9-0.9h20.3c0.5,0,0.9,0.4,0.9,0.9c0,0.5-0.4,0.9-0.9,0.9h-1.6
					c-2.6,0-4.7,2.1-4.7,4.7s2.1,4.7,4.7,4.7h5.2c0.7,0,1.2,0.5,1.2,1.2C317.3-106.9,317-106.5,316.6-106.2z"/>
				<path class="st1" d="M304.3-81.8h-0.4v-0.4c0-0.9-0.7-1.7-1.7-1.7c-0.9,0-1.7,0.7-1.7,1.7v0.4h-0.4c-0.9,0-1.7,0.7-1.7,1.7
					c0,0.9,0.7,1.7,1.7,1.7h0.4v0.4c0,0.9,0.7,1.7,1.7,1.7c0.9,0,1.7-0.7,1.7-1.7v-0.4h0.4c0.9,0,1.7-0.7,1.7-1.7
					S305.2-81.8,304.3-81.8z"/>
				<path class="st1" d="M306.4-88.4H298c-2.2,0-4.1,1.8-4.1,4.1v8.3c0,2.2,1.8,4.1,4.1,4.1h8.3c2.2,0,4.1-1.8,4.1-4.1v-8.3
					C310.4-86.6,308.6-88.4,306.4-88.4z M307.1-76c0,0.4-0.3,0.7-0.7,0.7H298c-0.4,0-0.7-0.3-0.7-0.7v-8.3c0-0.4,0.3-0.7,0.7-0.7
					h8.3c0.4,0,0.7,0.3,0.7,0.7V-76z"/>
				<path class="st1" d="M284.3-72.4c-0.5-0.7-1.6-0.9-2.3-0.4l-2.8,2.1c-0.7,0.5-0.9,1.6-0.4,2.3c0.3,0.4,0.8,0.7,1.3,0.7
					c0.3,0,0.7-0.1,1-0.3l2.8-2.1C284.7-70.6,284.8-71.7,284.3-72.4z"/>
				<path class="st1" d="M283.9-81.5l-2.8-2.1c-0.7-0.5-1.8-0.4-2.3,0.4c-0.5,0.7-0.4,1.8,0.4,2.3l2.8,2.1c0.3,0.2,0.6,0.3,1,0.3
					c0.5,0,1-0.2,1.3-0.7C284.8-79.9,284.7-80.9,283.9-81.5z"/>
				<path class="st1" d="M281-77.4h-3.2c-0.9,0-1.7,0.7-1.7,1.7c0,0.9,0.7,1.7,1.7,1.7h3.2c0.9,0,1.7-0.7,1.7-1.7
					C282.6-76.7,281.9-77.4,281-77.4z"/>
				<path class="st1" d="M325.1-83.2c-0.5-0.7-1.6-0.9-2.3-0.4l-2.8,2.1c-0.7,0.5-0.9,1.6-0.4,2.3c0.3,0.4,0.8,0.7,1.3,0.7
					c0.3,0,0.7-0.1,1-0.3l2.8-2.1C325.5-81.4,325.6-82.4,325.1-83.2z"/>
				<path class="st1" d="M324.7-70.7l-2.8-2.1c-0.7-0.5-1.8-0.4-2.3,0.4c-0.5,0.7-0.4,1.8,0.4,2.3l2.8,2.1c0.3,0.2,0.6,0.3,1,0.3
					c0.5,0,1-0.2,1.3-0.7C325.6-69.1,325.5-70.2,324.7-70.7z"/>
				<path class="st1" d="M326.1-77.4h-3.2c-0.9,0-1.7,0.7-1.7,1.7c0,0.9,0.7,1.7,1.7,1.7h3.2c0.9,0,1.7-0.7,1.7-1.7
					C327.8-76.7,327.1-77.4,326.1-77.4z"/>
				<circle class="st1" cx="301.9" cy="-92.9" r="2.9"/>
			</g>
			<g>
				<path class="st1" d="M475.5-174.2h-51.4c-1.6,0-2.9,1.3-2.9,2.9v4v23.1v4c0,1.6,1.3,2.9,2.9,2.9h20.8l-0.6,3.9H440
					c-0.9,0-1.7,0.7-1.7,1.7c0,0.9,0.7,1.7,1.7,1.7h19.7c0.9,0,1.7-0.7,1.7-1.7c0-0.9-0.7-1.7-1.7-1.7h-4.3l-0.6-3.9h20.8
					c1.6,0,2.9-1.3,2.9-2.9v-4v-23.1v-4C478.5-172.9,477.2-174.2,475.5-174.2z M447.6-133.3l0.6-3.9h3.1l0.6,3.9H447.6z
					 M475.2-140.6h-50.7v-2h50.7V-140.6z M475.2-145.9h-50.7v-19.8h50.7V-145.9z M475.2-169h-50.7v-2h50.7V-169z"/>
				<path class="st1" d="M453.2-178.9c-0.9-0.9-2.1-1.4-3.3-1.4c-1.3,0-2.5,0.5-3.3,1.4c-0.6,0.6-0.6,1.7,0,2.3
					c0.6,0.6,1.7,0.6,2.3,0c0.3-0.3,0.6-0.4,1-0.4s0.7,0.1,1,0.4c0.3,0.3,0.7,0.5,1.2,0.5c0.4,0,0.8-0.2,1.2-0.5
					C453.8-177.2,453.8-178.3,453.2-178.9z"/>
				<path class="st1" d="M455.6-182.8c-3.2-3.2-8.3-3.2-11.5,0c-0.6,0.6-0.6,1.7,0,2.3c0.6,0.6,1.7,0.6,2.3,0c1.9-1.9,4.9-1.9,6.8,0
					c0.3,0.3,0.7,0.5,1.2,0.5c0.4,0,0.8-0.2,1.2-0.5C456.2-181.1,456.2-182.1,455.6-182.8z"/>
				<path class="st1" d="M458.3-186.4c-2.3-2.3-5.3-3.5-8.5-3.5c-3.2,0-6.2,1.2-8.5,3.5c-0.6,0.6-0.6,1.7,0,2.3
					c0.6,0.6,1.7,0.6,2.3,0c1.6-1.6,3.8-2.5,6.1-2.5s4.5,0.9,6.1,2.5c0.3,0.3,0.7,0.5,1.2,0.5c0.4,0,0.8-0.2,1.2-0.5
					C458.9-184.7,458.9-185.7,458.3-186.4z"/>
			</g>
			<g>
				<path class="st1" d="M503.4-262.2H491c-2.9-2.3-6.5-3.7-10.5-3.7c-9.2,0-16.7,7.5-16.7,16.7c0,9.2,7.5,16.7,16.7,16.7
					c0.3,0,0.6,0,1,0v10.7h-1.7c-2.8,0-5.1,2.3-5.1,5.1c0,1-0.8,1.8-1.8,1.8h-4.3c-0.5-2.1-2.4-3.7-4.7-3.7h-5.7
					c-0.9,0-1.7,0.7-1.7,1.7v0.2h-0.9c-0.9,0-1.7,0.7-1.7,1.7c0,0.9,0.7,1.7,1.7,1.7h0.9v0.5h-0.9c-0.9,0-1.7,0.7-1.7,1.7
					c0,0.9,0.7,1.7,1.7,1.7h0.9v0.2c0,0.9,0.7,1.7,1.7,1.7h5.7c2.3,0,4.2-1.6,4.7-3.8h4.3c2.8,0,5.1-2.3,5.1-5.1
					c0-1,0.8-1.8,1.8-1.8h1.7v8.2c0,2.3,1.9,4.3,4.3,4.3h17.6c2.3,0,4.3-1.9,4.3-4.3v-47.7C507.6-260.3,505.7-262.2,503.4-262.2z
					 M465.4-212.6c0,0.8-0.7,1.5-1.5,1.5h-4v-4.2h4c0.8,0,1.5,0.7,1.5,1.5V-212.6z M480.5-235.7c-7.4,0-13.4-6-13.4-13.4
					s6-13.4,13.4-13.4s13.4,6,13.4,13.4C493.9-241.8,487.9-235.7,480.5-235.7z M494.6-225.6c-1.5,0-2.7-1.2-2.7-2.7
					c0-1.5,1.2-2.7,2.7-2.7s2.7,1.2,2.7,2.7C497.3-226.8,496.1-225.6,494.6-225.6z M497.3-217.7c0,1.5-1.2,2.7-2.7,2.7
					s-2.7-1.2-2.7-2.7s1.2-2.7,2.7-2.7S497.3-219.2,497.3-217.7z M494.6-236.2c-0.9,0-1.7-0.5-2.2-1.2c1.2-1.2,2.2-2.6,3-4.2
					c1.1,0.3,1.9,1.4,1.9,2.6C497.3-237.5,496.1-236.2,494.6-236.2z M503.4-209.3h-17.6c-0.5,0-0.9-0.4-0.9-0.9V-233
					c1.8-0.5,3.5-1.3,5.1-2.3c0.5,0.7,1.2,1.2,1.9,1.6c-1.9,1-3.2,3-3.2,5.3c0,2.3,1.3,4.3,3.2,5.3c-1.9,1-3.2,3-3.2,5.3
					c0,3.3,2.7,6.1,6.1,6.1c3.3,0,6.1-2.7,6.1-6.1c0-2.3-1.3-4.3-3.2-5.3c1.9-1,3.2-3,3.2-5.3c0-2.3-1.3-4.3-3.2-5.3
					c1.9-1,3.2-3,3.2-5.3c0-2.6-1.7-4.9-4-5.7c0.4-1.4,0.6-2.9,0.6-4.5c0-3.6-1.2-7-3.1-9.7h9.2c0.5,0,0.9,0.4,0.9,0.9v47.7h0
					C504.3-209.7,503.9-209.3,503.4-209.3z"/>
				<path class="st1" d="M485.8-251.2v-1.8c0-2.9-2.4-5.3-5.3-5.3s-5.3,2.4-5.3,5.3v1.8c-0.8,0.2-1.3,0.8-1.3,1.6v7.5
					c0,0.9,0.7,1.7,1.7,1.7h9.9c0.9,0,1.7-0.7,1.7-1.7v-7.5C487.1-250.4,486.6-251,485.8-251.2z M478.5-253c0-1.1,0.9-2,2-2
					s2,0.9,2,2v1.7h-4V-253z M483.8-243.7h-6.6v-4.2h6.6V-243.7z"/>
				<path class="st1" d="M501.4-257.4h-1.7c-0.9,0-1.7,0.7-1.7,1.7c0,0.9,0.7,1.7,1.7,1.7h1.7c0.9,0,1.7-0.7,1.7-1.7
					C503.1-256.7,502.3-257.4,501.4-257.4z"/>
			</g>
			<g>
				<path class="st1" d="M128-197.3h-4.8l5.1-9.7c0.4-0.8,0.1-1.8-0.7-2.2c-0.8-0.4-1.8-0.1-2.2,0.7l-5.9,11.3H79.7
					c-3.2,0-5.8,2.6-5.8,5.8v6.8c0,3.2,2.6,5.8,5.8,5.8h2.6v0.3c0,0.9,0.7,1.7,1.7,1.7s1.7-0.7,1.7-1.7v-0.3H122v0.3
					c0,0.9,0.7,1.7,1.7,1.7c0.9,0,1.7-0.7,1.7-1.7v-0.3h2.6c3.2,0,5.8-2.6,5.8-5.8v-6.8C133.8-194.7,131.2-197.3,128-197.3z
					 M130.5-184.7c0,1.4-1.1,2.5-2.5,2.5H79.7c-1.4,0-2.5-1.1-2.5-2.5v-6.8c0-1.4,1.1-2.5,2.5-2.5H128c1.4,0,2.5,1.1,2.5,2.5V-184.7
					z"/>
				<path class="st1" d="M85.7-189.8h-2.8c-0.9,0-1.7,0.7-1.7,1.7c0,0.9,0.7,1.7,1.7,1.7h2.8c0.9,0,1.7-0.7,1.7-1.7
					C87.4-189.1,86.6-189.8,85.7-189.8z"/>
				<path class="st1" d="M92.8-189.8H90c-0.9,0-1.7,0.7-1.7,1.7c0,0.9,0.7,1.7,1.7,1.7h2.8c0.9,0,1.7-0.7,1.7-1.7
					C94.4-189.1,93.7-189.8,92.8-189.8z"/>
				<path class="st1" d="M125.8-189.8H123c-0.9,0-1.7,0.7-1.7,1.7c0,0.9,0.7,1.7,1.7,1.7h2.8c0.9,0,1.7-0.7,1.7-1.7
					C127.5-189.1,126.7-189.8,125.8-189.8z"/>
				<path class="st1" d="M107.2-204.9c-0.9-0.9-2.1-1.4-3.3-1.4c-1.3,0-2.5,0.5-3.3,1.4c-0.6,0.6-0.6,1.7,0,2.3
					c0.6,0.6,1.7,0.6,2.3,0c0.3-0.3,0.6-0.4,1-0.4s0.7,0.1,1,0.4c0.3,0.3,0.7,0.5,1.2,0.5s0.8-0.2,1.2-0.5
					C107.8-203.2,107.8-204.2,107.2-204.9z"/>
				<path class="st1" d="M109.6-208.7c-3.2-3.2-8.3-3.2-11.5,0c-0.6,0.6-0.6,1.7,0,2.3c0.6,0.6,1.7,0.6,2.3,0c1.9-1.9,4.9-1.9,6.8,0
					c0.3,0.3,0.7,0.5,1.2,0.5c0.4,0,0.8-0.2,1.2-0.5C110.2-207,110.2-208.1,109.6-208.7z"/>
				<path class="st1" d="M112.3-212.3c-4.7-4.7-12.2-4.7-16.9,0c-0.6,0.6-0.6,1.7,0,2.3c0.6,0.6,1.7,0.6,2.3,0
					c3.4-3.4,8.8-3.4,12.2,0c0.3,0.3,0.7,0.5,1.2,0.5s0.8-0.2,1.2-0.5C112.9-210.6,112.9-211.7,112.3-212.3z"/>
			</g>
			<g>
				<circle class="st1" cx="177.4" cy="-57.4" r="3.5"/>
				<path class="st1" d="M186.1-98.8l-1.4-6.5c-0.8-3.6-4.3-5.8-7.8-5.1l-20.6,4.4c-3.6,0.8-5.8,4.3-5.1,7.8l1.4,6.5
					c-0.6,0.4-0.9,1-0.7,1.7l0.6,2.8c0.1,0.7,0.7,1.2,1.4,1.3l0.4,1.8c-0.6,0.4-0.9,1-0.7,1.7l0.6,2.8c0.1,0.7,0.7,1.2,1.4,1.3
					l5.5,25.7c0.8,3.6,4.3,5.8,7.8,5.1l20.6-4.4c3.6-0.8,5.8-4.3,5.1-7.8l-6.5-30.5c0.6-0.4,0.9-1,0.7-1.7l-1.2-5.6
					C187.3-98.2,186.8-98.7,186.1-98.8z M155.6-93.7l27-5.8l6.7,31.5l-27,5.8L155.6-93.7z M191.2-59c0.4,1.8-0.8,3.5-2.5,3.9
					l-20.6,4.4c-1.8,0.4-3.5-0.8-3.9-2.5L163-59l27-5.8L191.2-59z M181.9-102.7l-27,5.8l-0.4-2c-0.4-1.8,0.8-3.5,2.5-3.9l20.6-4.4
					c1.8-0.4,3.5,0.8,3.9,2.5L181.9-102.7L181.9-102.7z"/>
				<path class="st1" d="M169.9-104.5l-4.8,1c-0.9,0.2-1.5,1.1-1.3,2c0.2,0.9,1.1,1.5,2,1.3l4.8-1c0.9-0.2,1.5-1.1,1.3-2
					C171.6-104.1,170.8-104.7,169.9-104.5z"/>
				<path class="st1" d="M177.2-75.5c-1.1-0.7-2.5-1-3.8-0.7c-1.3,0.3-2.4,1.1-3.2,2.2c-0.5,0.8-0.3,1.9,0.5,2.4s1.9,0.3,2.4-0.5
					c0.2-0.3,0.6-0.6,0.9-0.6c0.4-0.1,0.8,0,1.1,0.2c0.4,0.3,0.9,0.3,1.3,0.2c0.4-0.1,0.8-0.4,1.1-0.8
					C178.2-73.9,178-74.9,177.2-75.5z"/>
				<path class="st1" d="M178.8-80c-4-2.6-9.3-1.4-11.9,2.5c-0.5,0.8-0.3,1.9,0.5,2.4c0.8,0.5,1.9,0.3,2.4-0.5
					c1.5-2.4,4.7-3,7.1-1.5c0.4,0.3,0.9,0.3,1.3,0.2s0.8-0.4,1.1-0.8C179.9-78.4,179.6-79.5,178.8-80z"/>
				<path class="st1" d="M180.8-84.3c-5.9-3.8-13.7-2.1-17.5,3.7c-0.5,0.8-0.3,1.9,0.5,2.4c0.8,0.5,1.9,0.3,2.4-0.5
					c2.7-4.2,8.4-5.4,12.6-2.7c0.4,0.3,0.9,0.3,1.3,0.2c0.4-0.1,0.8-0.4,1.1-0.8C181.9-82.7,181.6-83.8,180.8-84.3z"/>
			</g>
			<g>
				<path class="st1" d="M143.9-404.3h-3.8l-1.2-4.6c-0.2-0.7-0.8-1.2-1.6-1.2h-37.1c-0.8,0-1.4,0.5-1.6,1.2l-1.2,4.6h-3.8
					c-2.7,0-4.8,2.2-4.8,4.8v27.1c0,3,2.4,5.5,5.5,5.5h49c3,0,5.5-2.4,5.5-5.5v-27.1C148.8-402.1,146.6-404.3,143.9-404.3z
					 M101.6-406.8h34.5l0.6,2.3H101L101.6-406.8z M145.5-372.4c0,1.2-1,2.1-2.1,2.1h-49c-1.2,0-2.1-1-2.1-2.1v-23.1h53.3V-372.4z
					 M145.5-398.8H92.2v-0.7c0-0.8,0.7-1.5,1.5-1.5h50.2c0.8,0,1.5,0.7,1.5,1.5V-398.8z"/>
				<path class="st1" d="M141.4-385H97c-0.9,0-1.7,0.7-1.7,1.7v9.3c0,0.9,0.7,1.7,1.7,1.7h44.4c0.9,0,1.7-0.7,1.7-1.7v-9.3
					C143.1-384.3,142.3-385,141.4-385z M139.8-375.8h-2.7c-0.2-0.8-0.8-1.3-1.6-1.3H103c-0.8,0-1.5,0.6-1.6,1.3h-2.7v-6h41.1V-375.8
					z"/>
				<path class="st1" d="M136.6-392.8h-1.4c-0.9,0-1.7,0.7-1.7,1.7c0,0.9,0.7,1.7,1.7,1.7h1.4c0.9,0,1.7-0.7,1.7-1.7
					C138.3-392,137.5-392.8,136.6-392.8z"/>
				<path class="st1" d="M142.1-392.8h-1.4c-0.9,0-1.7,0.7-1.7,1.7c0,0.9,0.7,1.7,1.7,1.7h1.4c0.9,0,1.7-0.7,1.7-1.7
					C143.8-392,143.1-392.8,142.1-392.8z"/>
				<path class="st1" d="M112.3-394.7H97c-0.9,0-1.7,0.7-1.7,1.7v4.9c0,0.9,0.7,1.7,1.7,1.7h15.2c0.9,0,1.7-0.7,1.7-1.7v-4.9
					C113.9-393.9,113.2-394.7,112.3-394.7z M110.6-389.8H98.7v-1.5h11.9V-389.8z"/>
				<path class="st1" d="M122.2-414.9c-1.8-1.8-4.8-1.8-6.7,0c-0.6,0.6-0.6,1.7,0,2.3c0.6,0.6,1.7,0.6,2.3,0c0.6-0.6,1.4-0.6,2,0
					c0.3,0.3,0.7,0.5,1.2,0.5c0.4,0,0.8-0.2,1.2-0.5C122.8-413.2,122.8-414.3,122.2-414.9z"/>
				<path class="st1" d="M124.6-418.8c-3.2-3.2-8.3-3.2-11.5,0c-0.6,0.6-0.6,1.7,0,2.3c0.6,0.6,1.7,0.6,2.3,0c1.9-1.9,4.9-1.9,6.8,0
					c0.3,0.3,0.7,0.5,1.2,0.5c0.4,0,0.8-0.2,1.2-0.5C125.2-417.1,125.2-418.1,124.6-418.8z"/>
				<path class="st1" d="M127.3-422.4c-4.7-4.7-12.2-4.7-16.9,0c-0.6,0.6-0.6,1.7,0,2.3c0.6,0.6,1.7,0.6,2.3,0
					c3.4-3.4,8.8-3.4,12.2,0c0.3,0.3,0.7,0.5,1.2,0.5s0.8-0.2,1.2-0.5C127.9-420.7,127.9-421.7,127.3-422.4z"/>
			</g>
			<g>
				<path class="st1" d="M99.9-151.9c-0.9,0-1.7,0.7-1.7,1.7v3.2c0,0.9,0.7,1.7,1.7,1.7c0.9,0,1.7-0.7,1.7-1.7v-3.2
					C101.6-151.1,100.9-151.9,99.9-151.9z"/>
				<path class="st1" d="M96.9-146l-2.1-2.8c-0.5-0.7-1.6-0.9-2.3-0.4c-0.7,0.5-0.9,1.6-0.4,2.3l2.1,2.8c0.3,0.4,0.8,0.7,1.3,0.7
					c0.3,0,0.7-0.1,1-0.3C97.3-144.3,97.5-145.3,96.9-146z"/>
				<path class="st1" d="M107.3-149.2c-0.7-0.5-1.8-0.4-2.3,0.4l-2.1,2.8c-0.5,0.7-0.4,1.8,0.4,2.3c0.3,0.2,0.6,0.3,1,0.3
					c0.5,0,1-0.2,1.3-0.7l2.1-2.8C108.2-147.6,108.1-148.6,107.3-149.2z"/>
				<path class="st1" d="M122.5-130v-4.5c0-2.3-1.9-4.2-4.2-4.2H81.6c-2.3,0-4.2,1.9-4.2,4.2v4.5c-0.7,0.2-1.2,0.8-1.2,1.6v34.7
					c0,0.9,0.7,1.7,1.7,1.7h44.3c0.9,0,1.7-0.7,1.7-1.7v-34.7C123.7-129.1,123.2-129.8,122.5-130z M80.7-134.5
					c0-0.5,0.4-0.9,0.9-0.9h36.7c0.5,0,0.9,0.4,0.9,0.9v4.5H80.7V-134.5z M120.4-95.3h-41v-8.2h41L120.4-95.3L120.4-95.3z
					 M120.4-106.8h-41v-19.9h41L120.4-106.8L120.4-106.8z"/>
				<path class="st1" d="M97.1-122.8H85c-0.9,0-1.7,0.7-1.7,1.7v4.5c0,0.9,0.7,1.7,1.7,1.7h12c0.9,0,1.7-0.7,1.7-1.7v-4.5
					C98.7-122,98-122.8,97.1-122.8z M93.9-118.3h-7.2v-1.1h7.2V-118.3z"/>
				<path class="st1" d="M89.2-101.3h-0.8c-0.3-0.4-0.8-0.7-1.3-0.7s-1,0.3-1.3,0.7H85c-0.9,0-1.7,0.7-1.7,1.7v0.7
					c0,0.9,0.7,1.7,1.7,1.7h4.2c0.9,0,1.7-0.7,1.7-1.7v-0.7C90.9-100.5,90.1-101.3,89.2-101.3z"/>
				<circle class="st1" cx="114.6" cy="-99.4" r="1.9"/>
			</g>
			<g>
				<path class="st1" d="M462.5-301.9c-0.2,0-0.3,0-0.5,0.1c-0.4-1.7-1.7-3.1-3.4-3.6l-0.3-6.7c0-0.7-0.6-1.2-1.3-1.2h-16.6
					c-0.7,0-1.2,0.5-1.3,1.2l-0.3,6.7c-2.1,0.6-3.6,2.5-3.6,4.8v20.5c0,2.2,1.5,4.1,3.6,4.8l0.3,6.7c0,0.7,0.6,1.2,1.3,1.2h16.6
					c0.7,0,1.2-0.5,1.3-1.2l0.3-6.7c2.1-0.6,3.6-2.5,3.6-4.8v-15.1c0.1,0,0.2,0,0.3,0c0.7,0,1.3-0.6,1.3-1.3v-4.2
					C463.8-301.4,463.2-301.9,462.5-301.9z M441.7-310.8h14.2l0.1,1.3h-14.3L441.7-310.8z M441.6-307H456l0.1,1.4h-14.6L441.6-307z
					 M455.9-270h-14.2l-0.1-1.3h14.3L455.9-270z M456-273.8h-14.5l-0.1-1.4h14.6L456-273.8z M459.6-280.1c0,1.3-1.1,2.4-2.4,2.4
					h-16.8c-1.3,0-2.4-1.1-2.4-2.4v-20.5c0-1.3,1.1-2.4,2.4-2.4h16.8c1.3,0,2.4,1.1,2.4,2.4V-280.1z"/>
				<path class="st1" d="M459.5-290.4c0-2-1.6-3.6-3.6-3.6c-0.4,0-0.8,0.1-1.1,0.2c0.7-0.7,1.2-1.6,1.2-2.7c0-2-1.6-3.6-3.6-3.6
					c-1.8,0-3.3,1.3-3.5,3c-0.3-1.7-1.8-3-3.5-3c-2,0-3.6,1.6-3.6,3.6c0,1,0.4,2,1.2,2.6c-0.3-0.1-0.7-0.2-1.1-0.2
					c-2,0-3.6,1.6-3.6,3.6s1.6,3.6,3.6,3.6c0.4,0,0.7-0.1,1.1-0.2c-0.7,0.7-1.2,1.6-1.2,2.6c0,2,1.6,3.6,3.6,3.6
					c1.8,0,3.3-1.3,3.5-3c0.3,1.7,1.8,3,3.5,3c2,0,3.6-1.6,3.6-3.6c0-1-0.5-2-1.2-2.7c0.4,0.1,0.7,0.2,1.1,0.2
					C457.9-286.8,459.5-288.4,459.5-290.4z M441.7-289.3c-0.6,0-1.1-0.5-1.1-1.1s0.5-1.1,1.1-1.1c0.6,0,1.1,0.5,1.1,1.1
					S442.3-289.3,441.7-289.3z M452.3-297.5c0.6,0,1.1,0.5,1.1,1.1c0,0.6-0.5,1.1-1.1,1.1s-1.1-0.5-1.1-1.1
					C451.3-297,451.7-297.5,452.3-297.5z M445.2-297.5c0.6,0,1.1,0.5,1.1,1.1c0,0.6-0.5,1.1-1.1,1.1c-0.6,0-1.1-0.5-1.1-1.1
					C444.2-297,444.7-297.5,445.2-297.5z M445.2-283.3c-0.6,0-1.1-0.5-1.1-1.1s0.5-1.1,1.1-1.1c0.6,0,1.1,0.5,1.1,1.1
					S445.8-283.3,445.2-283.3z M445.2-287.9c-0.4,0-0.7,0.1-1.1,0.2c0.6-0.5,1-1.2,1.1-2c0.1,0.8,0.5,1.5,1.1,2.1
					C446-287.9,445.6-287.9,445.2-287.9z M445.3-291c-0.1-0.8-0.5-1.5-1.1-2c0.3,0.1,0.7,0.2,1.1,0.2c0.4,0,0.8-0.1,1.1-0.2
					C445.8-292.5,445.4-291.8,445.3-291z M448.8-284.9c-0.1-0.8-0.5-1.5-1.1-2.1c0.4,0.1,0.7,0.2,1.1,0.2c0.4,0,0.7-0.1,1.1-0.2
					C449.3-286.4,448.9-285.7,448.8-284.9z M447.7-290.4c0-0.6,0.5-1.1,1.1-1.1s1.1,0.5,1.1,1.1s-0.5,1.1-1.1,1.1
					S447.7-289.8,447.7-290.4z M448.8-294c-0.4,0-0.8,0.1-1.1,0.2c0.6-0.5,1-1.2,1.1-2.1c0.1,0.8,0.5,1.5,1.1,2
					C449.5-293.9,449.2-294,448.8-294z M452.3-283.3c-0.6,0-1.1-0.5-1.1-1.1s0.5-1.1,1.1-1.1s1.1,0.5,1.1,1.1
					S452.9-283.3,452.3-283.3z M452.3-287.9c-0.4,0-0.7,0.1-1.1,0.2c0.6-0.5,1-1.2,1.1-2c0.1,0.8,0.5,1.5,1.1,2.1
					C453.1-287.9,452.7-287.9,452.3-287.9z M452.3-291c-0.1-0.8-0.5-1.5-1.1-2c0.3,0.1,0.7,0.2,1.1,0.2c0.4,0,0.8-0.1,1.1-0.2
					C452.9-292.5,452.5-291.8,452.3-291z M454.8-290.4c0-0.6,0.5-1.1,1.1-1.1s1.1,0.5,1.1,1.1s-0.5,1.1-1.1,1.1
					S454.8-289.8,454.8-290.4z"/>
				<circle class="st1" cx="448.8" cy="-280" r="1.2"/>
				<circle class="st1" cx="448.8" cy="-300.8" r="1.2"/>
			</g>
		</g>
		<g>
			<g>
				<path class="st1" d="M246.1-414.3v-2.4c0-4.1-3.3-7.4-7.4-7.4H219c-4.1,0-7.4,3.3-7.4,7.4v2.4c-0.6,0.2-1.1,0.9-1.1,1.6
					s0.4,1.3,1.1,1.6v28.5c0,0.9,0.8,1.7,1.7,1.7h31.2c0.9,0,1.7-0.8,1.7-1.7v-28.5c0.6-0.2,1.1-0.9,1.1-1.6
					S246.8-414.1,246.1-414.3z M242.7-384.4h-3.3v-1.1c0-0.9-0.8-1.7-1.7-1.7h-17.8c-0.9,0-1.7,0.8-1.7,1.7v1.1h-3.3V-411h27.8
					V-384.4z M242.7-414.4h-27.8v-2.3c0-2.2,1.8-4.1,4.1-4.1h19.7c2.2,0,4.1,1.8,4.1,4.1V-414.4z"/>
			</g>
			<g>
				<path class="st1" d="M186.1-448.8l-1.4-6.5c-0.8-3.6-4.3-5.8-7.8-5.1l-20.6,4.4c-3.6,0.8-5.8,4.3-5.1,7.8l1.4,6.5
					c-0.6,0.4-0.9,1-0.7,1.7l0.6,2.8c0.1,0.7,0.7,1.2,1.4,1.3l0.4,1.8c-0.6,0.4-0.9,1-0.7,1.7l0.6,2.8c0.1,0.7,0.7,1.2,1.4,1.3
					l5.5,25.7c0.8,3.6,4.3,5.8,7.8,5.1l20.6-4.4c3.6-0.8,5.8-4.3,5.1-7.8l-6.5-30.5c0.6-0.4,0.9-1,0.7-1.7l-1.2-5.6
					C187.3-448.2,186.8-448.7,186.1-448.8z M155.6-443.7l27-5.8l6.7,31.5l-27,5.8L155.6-443.7z M191.2-409c0.4,1.8-0.8,3.5-2.5,3.9
					l-20.6,4.4c-1.8,0.4-3.5-0.8-3.9-2.5L163-409l27-5.8L191.2-409z M181.9-452.7l-27,5.8l-0.4-2c-0.4-1.8,0.8-3.5,2.5-3.9l20.6-4.4
					c1.8-0.4,3.5,0.8,3.9,2.5L181.9-452.7L181.9-452.7z"/>
			</g>
		</g>
	</g>
</pattern>
<rect class="st2" width="1920" height="1080"/>
</svg>
