<?xml version="1.0" encoding="utf-8"?>
<!-- Generator: Adobe Illustrator 22.0.0, SVG Export Plug-In . SVG Version: 6.00 Build 0)  -->
<svg version="1.1" id="Capa_1" xmlns="http://www.w3.org/2000/svg" xmlns:xlink="http://www.w3.org/1999/xlink" x="0px" y="0px"
	 viewBox="0 0 481 497.9" style="enable-background:new 0 0 481 497.9;" xml:space="preserve">
<style type="text/css">
	.st0{fill:#FF4B22;}
</style>
<g>
	<path class="st0" d="M457,168c-13.5,0-24.5,10.7-25,24.1l-172.1,47.5c-6.4-12.8-19.6-21.6-34.9-21.6c-0.6,0-1.1,0-1.7,0L181.9,46.4
		C189.1,42,194,34.1,194,25c0-13.8-11.2-25-25-25s-25,11.2-25,25c0,13.2,10.3,24.1,23.3,24.9l41.4,171.6
		c-9.4,4.3-16.8,12.3-20.4,22.1L49.7,221.8c-1.8-12-12.2-21.3-24.7-21.3c-13.8,0-25,11.2-25,25c0,13.8,11.2,25,25,25
		c9.8,0,18.3-5.7,22.4-13.9L186,258.5c0.3,8.9,3.7,17.1,9.1,23.6L58.7,450.6c-2.8-1.1-5.9-1.8-9.2-1.8c-13.8,0-25,11.2-25,25
		c0,13.8,11.2,25,25,25s25-11.2,25-25c0-5.1-1.5-9.9-4.2-13.8l136.4-168.6c5.4,2.9,11.6,4.5,18.2,4.5c7.5,0,14.5-2.1,20.4-5.8
		l111.4,120.8c-2.1,3.7-3.3,7.9-3.3,12.4c0,13.8,11.2,25,25,25s25-11.2,25-25c0-13.8-11.2-25-25-25c-3.8,0-7.4,0.9-10.7,2.4
		L256.4,280c4.8-6.5,7.6-14.4,7.6-23c0-1,0-2-0.1-3L436,206.6c4.5,6.9,12.2,11.4,21,11.4c13.8,0,25-11.2,25-25
		C482,179.2,470.8,168,457,168z M177.8,29.7c-1.7,3.2-5,5.3-8.8,5.3c-2.1,0-4.1-0.7-5.7-1.8c-2.6-1.8-4.3-4.8-4.3-8.2
		c0-5.5,4.5-10,10-10s10,4.5,10,10C179,26.7,178.6,28.3,177.8,29.7z M30.4,233.9c-1.5,1-3.4,1.6-5.4,1.6c-5.5,0-10-4.5-10-10
		c0-5.5,4.5-10,10-10c3.1,0,5.9,1.4,7.7,3.6c1.4,1.7,2.3,4,2.3,6.4C35,229,33.2,232.2,30.4,233.9z M49.5,483.9c-5.5,0-10-4.5-10-10
		c0-4.9,3.6-9,8.3-9.9h0c0.5-0.1,1.1-0.1,1.7-0.1c5.4,0,9.8,4.3,10,9.6c0,0.1,0,0.3,0,0.4C59.5,479.4,55,483.9,49.5,483.9z
		 M249,258.2c-0.2,3.8-1.3,7.4-3,10.5c-2.5,4.5-6.4,8-11,10.2c-3,1.4-6.4,2.2-9.9,2.2c-3,0-5.9-0.5-8.5-1.6
		c-4.8-1.8-8.9-5.2-11.6-9.4c-1.8-2.7-3-5.8-3.5-9.1c-0.2-1.3-0.3-2.5-0.3-3.9c0-3.9,1-7.7,2.7-11c2-3.9,5-7.1,8.7-9.4
		c3.7-2.3,8-3.6,12.6-3.6c0.7,0,1.3,0,1.9,0.1c7.5,0.6,14.1,4.7,18,10.6c2.6,3.8,4,8.4,4,13.3C249,257.4,249,257.8,249,258.2z
		 M368.5,423.5c0-5.5,4.5-10,10-10c0.3,0,0.7,0,1,0c5,0.5,9,4.8,9,10c0,5.5-4.5,10-10,10c-5.4,0-9.9-4.4-10-9.8V423.5z M457,203
		c-1.6,0-3.1-0.4-4.4-1c-3.3-1.6-5.6-5-5.6-9c0-2,0.6-3.9,1.6-5.5c1.8-2.7,4.9-4.5,8.4-4.5c5.5,0,10,4.5,10,10
		C467,198.5,462.5,203,457,203z"/>
</g>
</svg>
