<?xml version="1.0" encoding="utf-8"?>
<!-- Generator: Adobe Illustrator 22.0.0, SVG Export Plug-In . SVG Version: 6.00 Build 0)  -->
<svg version="1.1" id="Layer_1" xmlns="http://www.w3.org/2000/svg" xmlns:xlink="http://www.w3.org/1999/xlink" x="0px" y="0px"
	 viewBox="0 0 505.3 235.9" style="enable-background:new 0 0 505.3 235.9;" xml:space="preserve">
<style type="text/css">
	.st0{fill:#FF4B22;}
</style>
<g>
	<g>
		<path class="st0" d="M454.8,0c-28.4,0-51.5,23.1-51.5,51.5c0,11.5,3.8,22.1,10.2,30.7l-61.9,61.9c-8.6-6.4-19.2-10.2-30.7-10.2
			s-22.1,3.8-30.7,10.2l-62.8-62.8c6-8.4,9.5-18.7,9.5-29.8c0-28.4-23.1-51.5-51.5-51.5c-28.4,0-51.5,23.1-51.5,51.5
			c0,11.5,3.8,22.1,10.2,30.7l-61.9,61.9c-8.6-6.4-19.2-10.2-30.7-10.2C23.1,133.9,0,157,0,185.4c0,28.4,23.1,51.5,51.5,51.5
			c28.4,0,51.5-23.1,51.5-51.5c0-11.5-3.8-22.1-10.2-30.7l61.9-61.9c8.6,6.4,19.2,10.2,30.7,10.2c11.9,0,22.8-4,31.6-10.8l62.5,62.5
			c-6.4,8.6-10.2,19.2-10.2,30.7c0,28.4,23.1,51.5,51.5,51.5c28.4,0,51.5-23.1,51.5-51.5c0-11.5-3.8-22.1-10.2-30.7l61.9-61.9
			c8.6,6.4,19.2,10.2,30.7,10.2c28.4,0,51.5-23.1,51.5-51.5C506.3,23.1,483.2,0,454.8,0z M88,185.4c0,20.1-16.4,36.5-36.5,36.5
			c-20.1,0-36.5-16.4-36.5-36.5c0-20.1,16.4-36.5,36.5-36.5c7.4,0,14.2,2.2,19.9,5.9c4.2,2.8,7.9,6.4,10.6,10.6
			C85.8,171.2,88,178.1,88,185.4z M216.6,70.5c-2.6,4.3-6.1,8-10.3,10.9c-5.9,4.1-13.1,6.6-20.9,6.6c-7.4,0-14.2-2.2-19.9-5.9
			c-4.2-2.8-7.9-6.4-10.6-10.6c-3.8-5.7-5.9-12.6-5.9-19.9c0-20.1,16.4-36.5,36.5-36.5c20.1,0,36.5,16.4,36.5,36.5
			C221.9,58.5,220,65,216.6,70.5z M320.9,221.9c-20.1,0-36.5-16.4-36.5-36.5c0-7.4,2.2-14.2,6-20c2.8-4.2,6.4-7.8,10.6-10.6
			c5.7-3.8,12.6-5.9,19.9-5.9c7.4,0,14.2,2.2,19.9,5.9c4.2,2.8,7.9,6.4,10.6,10.6c3.8,5.7,5.9,12.6,5.9,19.9
			C357.4,205.5,341,221.9,320.9,221.9z M454.8,88c-7.4,0-14.2-2.2-19.9-5.9c-4.2-2.8-7.9-6.4-10.6-10.6c-3.8-5.7-6-12.6-6-19.9
			c0-20.1,16.4-36.5,36.5-36.5c20.1,0,36.5,16.4,36.5,36.5C491.3,71.6,474.9,88,454.8,88z"/>
	</g>
	<g>
		<path class="st0" d="M332.6,102.4L332.6,102.4c-2.9-2.9-2.9-7.7,0-10.6l28.1-28.1c2.9-2.9,7.7-2.9,10.6,0v0
			c2.9,2.9,2.9,7.7,0,10.6l-28.1,28.1C340.3,105.3,335.5,105.3,332.6,102.4z"/>
	</g>
	<g>
		<path class="st0" d="M135.2,172.9L135.2,172.9c-2.9-2.9-2.9-7.7,0-10.6l28.1-28.1c2.9-2.9,7.7-2.9,10.6,0l0,0
			c2.9,2.9,2.9,7.7,0,10.6l-28.1,28.1C142.8,175.8,138.1,175.8,135.2,172.9z"/>
	</g>
</g>
</svg>
