<?xml version="1.0" encoding="utf-8"?>
<!-- Generator: Adobe Illustrator 21.1.0, SVG Export Plug-In . SVG Version: 6.00 Build 0)  -->
<svg version="1.1" id="Layer_1" xmlns="http://www.w3.org/2000/svg" xmlns:xlink="http://www.w3.org/1999/xlink" x="0px" y="0px"
	 viewBox="0 0 512 512" style="enable-background:new 0 0 512 512;" xml:space="preserve">
<style type="text/css">
	.st0{fill:#FFFFFF;}
	.st1{fill:#FF0000;}
</style>
<g>
	<g>
		<path class="st0" d="M256,0C114.6,0,0,114.6,0,256c0,141.4,114.6,256,256,256s256-114.6,256-256C512,114.6,397.4,0,256,0z
			 M253.9,372.8c-22,0-39.8-18.9-39.8-42.3h79.7C293.7,353.9,275.9,372.8,253.9,372.8z M290.8,308.4h-73.9
			c-2-21.8-53.7-40.7-53.7-95.2c0-58,43.4-88.8,90.7-90c0,0,0,0,0,0c47.3,1.2,90.7,31.9,90.7,90
			C344.6,267.7,292.8,286.6,290.8,308.4z"/>
		<g>
			<path class="st1" d="M293.7,330.6c0,23.3-17.8,42.3-39.8,42.3c-22,0-39.8-18.9-39.8-42.3H293.7z"/>
			<path class="st1" d="M344.5,213.2c0,54.4-51.7,73.4-53.7,95.2h-73.9c-2-21.8-53.7-40.7-53.7-95.2c0-58,43.4-88.8,90.7-90
				c0,0,0,0,0,0C301.2,124.5,344.5,155.2,344.5,213.2z"/>
		</g>
	</g>
</g>
</svg>
